<svg id="Capa_1" data-name="Capa 1" xmlns="http://www.w3.org/2000/svg" viewBox="0 0 829.07 748.23"><defs><style>.cls-1{fill:#fff;}</style></defs><path class="cls-1" d="M157.46,604.82H800.85c-31.19,50.6-71.11,91.39-120.62,122.73a368.92,368.92,0,0,1-161.7,56.09C351.84,800.7,218.81,709.49,157.46,604.82Zm212.28,33.61c0,5.33.05,11.48,0,17.63,0,2.41,1.12,5.59-3.23,5.86-.41,0-.67,2.27-1.05,3.67h27.73V656c-5.9-1.89-2.93,3.64-4.55,5.11h-13V650.74a81,81,0,0,0,8.91-.11c1-.12,1.9-1.52,2.84-2.33-1-.62-1.88-1.68-2.88-1.76-2.93-.24-5.89-.09-9-.09V637H389a7.84,7.84,0,0,0,.22,2.27,36,36,0,0,0,2,3.24c.75-1.16,1.93-2.25,2.15-3.5a38.68,38.68,0,0,0,.1-6.61c-8.41,0-16-.1-23.67.09-1.44,0-2.84,1.24-4.26,1.91Zm30.58,27.7c2.48-.63,4.33-1.55,6.13-1.46,2.24.12,4.43,1.51,6.66,1.58A9.77,9.77,0,0,0,423.39,658c.77-5-1.88-9.36-7-11.18-2.35-.83-5-1-7.09-2.24-1.72-1-2.79-3.08-4.15-4.68,1.92-1.19,3.84-3.34,5.76-3.33,2.11,0,4.27,1.9,6.31,3.15a28.45,28.45,0,0,1,3.3,2.73,32.51,32.51,0,0,0,1.36-4.34,7.56,7.56,0,0,0-.1-3.93,3.92,3.92,0,0,0-2.63-2c-2-.31-4.24.22-6.24-.2-5.42-1.14-10.58,1.31-12.15,6.08-1.69,5.09.72,9.53,6.41,11.63,2.33.87,4.75,1.49,7.12,2.25,2.88.94,5.21,3,3.64,5.82-1.09,1.94-4.59,4.17-6.34,3.72-2.55-.67-4.5-3.64-6.71-5.62-.85-.76-1.71-1.5-2.57-2.24-.66.94-1.79,1.84-1.87,2.83C400.16,659.43,400.32,662.41,400.32,666.13ZM431.77,637h6.8c0,7,0,13.57,0,20.19,0,2,.7,4.5-2.86,4.59-.49,0-.93,2.33-1.47,3.8h15.36c-10.19-9-3.86-19.22-5.76-28.61h6.7a27.59,27.59,0,0,0,.11,5.66c.2.94,1.49,1.63,2.3,2.44.68-.75,1.89-1.47,1.95-2.26.22-3.26.09-6.54.09-10H427.61c0,3.73-.13,7,.1,10.32.05.69,1.35,1.61,2.21,1.81.46.1,1.68-1.05,1.77-1.74A52.57,52.57,0,0,0,431.77,637Zm135.8,17.84c.46,6.55,2.33,10.1,7.31,11.23a9.92,9.92,0,0,0,11.9-5.87,27.52,27.52,0,0,0,.76-20.88c-2.19-6.32-8.25-9.14-13.88-6.82s-8.11,9.91-5.39,15.73c2.56,5.49,7.92,6.81,14.34,3.57a6.58,6.58,0,0,1,1.58-.3c-.13,1.53.19,3.1-.43,4.06-1.52,2.33-3.14,5.42-5.39,6.17-1.46.49-4.1-2.64-6.24-4.1C571,656.87,569.79,656.2,567.57,654.85Zm-53.16-6c1.07,4.07,1.72,8,3.18,11.66,1.54,3.82,4.82,5.85,9.09,5.87,4.42,0,7.77-1.92,9.55-6a27,27,0,0,0-.06-22.7,9.53,9.53,0,0,0-9.12-5.89c-4.2,0-7.65,1.78-9.29,5.58C516.22,641,515.52,644.9,514.41,648.81ZM490.68,661a84.66,84.66,0,0,1,5.77-6.52c2.33-2.11,5-3.84,7.44-5.86,3.71-3.08,5.22-7,3.13-11.53s-6.3-5.68-10.89-5.27-7.78,3-8.43,7.74c-.23,1.67.88,3.51,1.38,5.28.95-1.34,1.81-2.76,2.89-4,1.5-1.72,2.91-4.09,4.82-4.68,1.44-.45,4.76,1.11,5.18,2.43a8.12,8.12,0,0,1-1.17,6.62c-2.13,2.66-5.32,4.45-7.95,6.74-4.05,3.52-6.55,7.8-6.25,13.66h21.6c0-3.4.13-6.52-.1-9.62-.05-.76-1.27-1.44-2-2.16-.72.71-1.82,1.32-2.06,2.17a26.68,26.68,0,0,0-.48,5Zm60.13-22.34v22.58l-1.17-.54-3.38,3.65a24.15,24.15,0,0,0,4.67,1.5,34.45,34.45,0,0,0,7,0,2.61,2.61,0,0,0,1.86-1.66c.1-.71-.71-2.21-1.18-2.23-3.8-.17-2.86-2.94-2.87-5-.07-7.93,0-15.87,0-24.15a23,23,0,0,0-4.79-.25,26.83,26.83,0,0,0-4.62,1.58Zm-87,27c1.07-6.12.66-6.5-5.1-5.07v5.07Z" transform="translate(-65.51 -37.48)"/><path class="cls-1" d="M120.91,404.5H103.1c4.81-114.53,49.7-209.37,138.41-282C359.08,26.32,523.38,9.85,656.19,82.76c126,69.15,190.06,178.34,199,321.67H837c-5.25-112.42-50.82-204.64-139.68-274-67-52.29-143.9-76.86-228.89-74.25-94.76,2.9-176.22,38.15-243.18,105.11S124.44,309.83,120.91,404.5Z" transform="translate(-65.51 -37.48)"/><path class="cls-1" d="M480.47,136.1c16.44,2.42,32.21,4,47.61,7.21,20.68,4.35,40.44,11.78,57,25.33A54.2,54.2,0,0,1,604.94,206c1.15,11.63-5.2,18.42-16.83,20a63,63,0,0,1-8.47.38c-25,0-49.95,0-74.93.12a14.79,14.79,0,0,0-7.11,2.32c-3.71,2.24-8.2,2.13-10.93-.88a8.18,8.18,0,0,1-.08-10.53c2.68-3.08,7.17-3.31,10.89-1.05a14,14,0,0,0,6.64,2.3c25.31.16,50.62.1,75.93.1,1,0,2,0,3,0,12.6-.42,17.28-6.71,13.34-18.72-2-6-4.08-12.51-11.69-14.16a3.11,3.11,0,0,1-1.21-.86c-22.08-20.34-49.34-28.46-78.13-32.15-32-4.11-63.87-2.86-95.1,5.88a118.28,118.28,0,0,0-47.42,25.63c-5.76,5.09-10.77,9.74-13.32,16.84-3.8,10.57,0,17.11,11.14,17.31,25.13.44,50.28.25,75.42.16,1.4,0,2.9-1.23,4.2-2.12,3.64-2.53,8.1-2.29,10.89.71a8,8,0,0,1-.11,10.87c-2.83,2.92-7.23,2.94-10.94.53a12.28,12.28,0,0,0-6.16-2.16c-22.81-.15-45.62,0-68.43-.15a51.16,51.16,0,0,1-11.86-1.23c-9.38-2.33-14.32-10-13.13-19.53a11.86,11.86,0,0,1,.55-2.94c6-14.41,10.9-29.25,25.13-38.55,20.53-13.42,43.08-20.75,67.11-24,10.87-1.45,21.84-2.15,33.07-3.22,1.14-3.85.22-7.06-2.86-10.06-11.43-11.12-25.64-13.69-40.34-11.29C388,121.32,355.44,133.86,330,159.65c-25.67,26-36.1,58.29-31.5,94.67,3,23.43,19,40.56,40.66,45.27a35.6,35.6,0,0,0,6.43.75,36.83,36.83,0,0,1,20.95,7c9,6.38,15.5,6.21,24.73-.06,13.3-9,26.19-9.08,39.45-.15,9.73,6.56,15.76,6.53,25.6-.14,12.78-8.66,25.89-8.7,38.62-.11,10.14,6.84,16,6.86,26,.09,12.74-8.64,25.82-8.67,38.61-.07,10.17,6.82,16,6.84,26,.06,12.49-8.43,22.52-8.67,37.34-.64.92-1.45,1.83-2.94,2.8-4.4a26.26,26.26,0,0,1,48,17.22c-1.08,11.58-10.5,21.3-22.27,23a26.23,26.23,0,0,1-28.18-16.05c-4.71-11.57-21.65-15.24-29.13-8.77a31.9,31.9,0,0,1-23.51,7.95,33.78,33.78,0,0,1-17.55-6.36c-9.94-6.83-15.74-6.79-25.58-.09-13,8.87-26,8.88-39.06,0-10-6.75-15.68-6.75-25.59,0-13.06,8.86-25.95,8.86-39.06,0-10-6.73-15.63-6.73-25.59,0-13.06,8.85-25.93,8.93-39-.11-4.56-3.15-9.33-4.38-14.84-4.93-25.55-2.52-43.85-15.74-54.06-39.25-9.23-21.24-8.1-43.35-2.67-65.22,9.48-38.18,31.83-66.53,67-84.44,22.18-11.3,45-20.94,70.21-23,18.18-1.5,34.6,2.49,48.36,15.47C479,122.79,480.36,129.42,480.47,136.1ZM647.55,299.94a16.46,16.46,0,0,0-16.37,16.62,16.69,16.69,0,0,0,16.42,16.19,16.47,16.47,0,0,0,16.5-16.49A16.2,16.2,0,0,0,647.55,299.94Z" transform="translate(-65.51 -37.48)"/><path class="cls-1" d="M894.59,592.66c-12.25,0-23.39.18-34.51-.19-1.61-.05-4.15-2.45-4.53-4.15-1.49-6.61-3-13.36-3.2-20.1-.46-15-.12-30-.13-44.93,0-7.2-3.28-10-11.24-9.21v77.85H804.34c-.11-1.37-.32-2.64-.32-3.92q0-80.4,0-160.82c0-4.25.89-5.87,5.45-5.74,15.63.46,31.3.15,46.91,1,5.62.29,11.35,2.41,16.64,4.64,9.66,4.08,14.53,11.79,14.61,22.35.07,9-.07,18,.1,27s-3.46,16.07-11,21.07c-.82.54-1.56,1.19-2.7,2.07,11.15,5.79,14.06,15.46,14,26.87-.09,13.63-.26,27.3.63,40.89.41,6.25,3.31,12.32,4.95,18.51C894.06,587.77,894.17,589.86,894.59,592.66ZM841.22,486.73c7.24.73,10.88-2.22,11-8.85.1-6.14,0-12.28,0-18.42,0-7.54-2.83-10.18-11-10.16Z" transform="translate(-65.51 -37.48)"/><path class="cls-1" d="M618.85,592.67c-12.31,0-23.45.15-34.57-.17-1.55,0-4-2.15-4.36-3.71-1.49-6.1-3.08-12.34-3.27-18.58-.46-15.62-.18-31.28-.19-46.92,0-7.13-3.33-10-11.3-9.23v77.87H528.31v-9c0-51.77.07-103.55-.11-155.33,0-4.75,1.16-6.33,6-6.17,15.47.5,31,.13,46.41,1,5.78.32,11.68,2.53,17.07,4.9,9.41,4.14,14,11.86,14.06,22.2,0,8.82-.13,17.65.11,26.47.25,9.53-3.61,16.69-11.54,21.79-.66.43-1.24,1-2.14,1.71,10.61,5.66,13.91,14.76,13.84,25.94-.08,14.13-.11,28.29.8,42.38.4,6.08,3.28,12,4.91,18C618.29,587.8,618.42,589.88,618.85,592.67Zm-53.54-143.4v37.42c7.13.85,10.94-2.16,11.09-8.74.14-6.14.07-12.28,0-18.42C576.37,451.94,573.69,449.38,565.31,449.27Z" transform="translate(-65.51 -37.48)"/><path class="cls-1" d="M65.63,591.72v-9.19c0-51.75.06-103.49-.12-155.23,0-4.67,1.31-6,5.84-5.84,15.29.43,30.62.08,45.88.93,5.6.31,11.32,2.56,16.53,4.93,10.59,4.8,15.73,13.69,15.79,25.13.17,36.26.26,72.53,0,108.8-.11,16.44-11.37,28.62-30,30.16C101.88,592.87,84,591.72,65.63,591.72Zm37.05-142.49v115.3c7,.55,10-2.16,10.06-9q0-48.36,0-96.73C112.74,451.75,110.5,449.56,102.68,449.23Z" transform="translate(-65.51 -37.48)"/><path class="cls-1" d="M514.8,422c.08,1.79.22,3.41.22,5,0,45.11-.09,90.21,0,135.31,0,12.38-5.3,21.26-16.51,26-19,8.08-38,7.52-56.43-1.76-7.94-4-12.27-10.89-12.31-19.74-.2-47.6-.19-95.2-.24-142.8a15.29,15.29,0,0,1,.36-2.21H466v5.95q0,64.41,0,128.82c0,3.2-.25,6.43,3.75,7.77,5,1.69,8.49-.92,8.49-6.63q0-64.92,0-129.82V422Z" transform="translate(-65.51 -37.48)"/><path class="cls-1" d="M163.26,420.69c19.93.89,39.33.48,58.34,3,15.24,2,25.83,10.77,24.72,30.49-.44,7.8.06,15.64-.09,23.46,0,2.62,0,5.67-1.34,7.74-3.16,5.09-7.06,9.71-10.86,14.8a22.49,22.49,0,0,1,11.82,16.9c.71,4.89.28,9.95.48,14.93.6,14.6,1.08,29.2,2,43.77.2,3.16,2.23,6.17,3.24,9.31.7,2.2,1.1,4.51,1.83,7.55-12.52,0-24,.2-35.38-.24-1.54,0-3.94-3.15-4.26-5.11-1.47-9-2.92-18.06-3.27-27.14-.47-12.13.08-24.29.2-36.44.07-7.6-3.09-10.48-11.29-9.67v77.86H163.26Zm36.31,65.92c7.05,1.06,10.93-1.91,11.08-8.51s.11-13,0-19.45c-.11-7.1-3.38-9.81-11.1-9.15Z" transform="translate(-65.51 -37.48)"/><path class="cls-1" d="M334.54,592.75V422.07a14.53,14.53,0,0,1,2.61-.47c15.63.18,31.27.14,46.89.73,4.7.18,9.5,1.65,14,3.31,11.73,4.35,17.7,12.9,17.59,25.6-.09,9.65.15,19.3.05,28.94-.09,9.1-4.87,15.56-12.83,20.38,1.86,1.26,3.19,2.19,4.53,3.09a20,20,0,0,1,9.31,17.26c.11,13.8.21,27.61,0,41.42-.19,14.68-10,26.75-26.27,28.53C372,592.87,353.33,592.23,334.54,592.75Zm36.65-28.06c6.95-.05,9.8-2.3,9.9-8.27q.32-17.89,0-35.82c-.11-5.92-3.28-8.18-9.88-7.65Zm0-76.82c7.14-.06,9.81-2.37,10-8.73.19-7,.17-13.95,0-20.92-.16-6.68-2.83-9-10-8.8Z" transform="translate(-65.51 -37.48)"/><path class="cls-1" d="M473.1,329.83q51.18,0,102.36,0a75.14,75.14,0,0,1,11.42.77c9.2,1.46,15.88,6.27,17.72,15.8s-1.09,18.05-9.34,23c-6.06,3.67-13.38,6.92-20.29,7.27-22.74,1.14-45.56,1-68.35,1.12-39.44.11-78.89.14-118.33-.19a141.3,141.3,0,0,1-27.2-2.89c-11.86-2.44-19.5-11.23-20.52-21.65-1.21-12.43,8.43-22.44,22.7-23.11,8.3-.38,16.64-.17,25-.17Q430.67,329.81,473.1,329.83Z" transform="translate(-65.51 -37.48)"/><path class="cls-1" d="M707,485.75H674V460.38c0-2-.11-4,0-6,.26-3.79-1.51-5.56-5.22-5.67-3.9-.11-5.86,1.64-5.84,5.66,0,12.65,0,25.31,0,38q0,32.71,0,65.43c0,5.43,2.13,7.67,6.53,7,2.74-.42,4.55-1.69,4.52-4.9-.1-7.64,0-15.29,0-23.4l-7.32-.7V505.15h39.94v87.1c-5,0-10.12.2-15.2-.13-1.22-.08-2.55-1.73-3.44-3a48.76,48.76,0,0,1-3.1-5.58c-1.56,1.09-2.86,2-4.17,2.9-13.94,9.58-28.28,9.56-42.82,1.53-7.36-4.07-11-10.78-11.06-18.92q-.24-60.44.07-120.87c.06-11.51,7.21-20.84,18.66-24.58a69.63,69.63,0,0,1,43.68-.22C701.06,427.2,707,435.85,707,448.3S707,472.91,707,485.75Z" transform="translate(-65.51 -37.48)"/><path class="cls-1" d="M720.33,592V581.43q0-77.13-.1-154.24c0-4.24.91-5.81,5.48-5.75,20.13.23,40.26.09,60.4.11,1.63,0,3.27.14,5.26.23v27.16H763.5c-6.49,0-6.5,0-6.5,6.46q0,13,0,26c0,1.78.15,3.57.25,5.87h30.53v26.32c-8.58,0-17,.2-25.46-.08-4-.13-5.51.92-5.43,5.21.26,13.81.09,27.62.11,41.43,0,1.46.21,2.91.36,4.87h34.3v27Z" transform="translate(-65.51 -37.48)"/><path class="cls-1" d="M499.25,268.11c12.69-3.67,24-11.33,38.27-10.48s28.3-.1,42.43.51a35.08,35.08,0,0,1,15.1,4.25c10.86,6.06,11.28,18.79,1.46,26.35-5.86,4.51-12.66,5.55-19.79,5.55q-52.68,0-105.36,0c-34.29,0-68.58.18-102.87-.19A49.41,49.41,0,0,1,350.31,290a14.43,14.43,0,0,1-9.18-15.21c.58-6.87,4.74-11.37,10.83-13.72a41.2,41.2,0,0,1,13-3c12-.45,24-.28,35.95-.3a6.63,6.63,0,0,1,3.38.57,106.38,106.38,0,0,1,15,10.69c-1.57.07-3.14.21-4.71.21-14.82,0-29.63,0-44.44.06-3.14,0-6.54,0-9.31,1.17-2.18.93-5,3.76-4.92,5.62s3,4.51,5.22,5.51c2.43,1.09,5.53.91,8.34.92q72.92.06,145.81,0c20.31,0,40.62.1,60.92-.18a23.11,23.11,0,0,0,10.22-2.88c3-1.64,3.24-5.16.09-6.84a25.26,25.26,0,0,0-11.08-3.24c-23.8-.28-47.6-.15-71.4-.15h-4.67C499.36,268.92,499.3,268.52,499.25,268.11Z" transform="translate(-65.51 -37.48)"/><path class="cls-1" d="M557.7,249.15c-19.82-3.64-43.06,2.69-65.77,12.74-11.24,5-23,8.69-34.43,13.29-4.8,1.93-8.79,1.57-13.11-1.32q-17.22-11.49-34.82-22.42a15,15,0,0,0-7.37-2.18c-16.8-.18-33.61-.09-50.41-.1a33.15,33.15,0,0,1-4-.06c-3.66-.45-6.61-2.11-6.52-6.16.09-3.73,2.87-5.54,6.37-5.74,4.31-.24,8.65-.14,13-.14,15.15,0,30.29-.21,45.43.14a22.53,22.53,0,0,1,10.62,3.17c11,6.62,21.68,13.64,32.34,20.74a7.56,7.56,0,0,0,7.8.77q30.22-11.67,60.6-23a28.74,28.74,0,0,1,9.67-1.78c22.79-.15,45.59-.08,68.38-.08,1.17,0,2.34,0,3.5,0,3.82.3,7.12,1.64,7.11,6.05s-3.33,5.92-7.15,6C586.94,249.22,575,249.15,557.7,249.15Z" transform="translate(-65.51 -37.48)"/><path class="cls-1" d="M452,161.11c2.33,0,4.66-.1,7,0,4.41.24,7.26,2.88,7.07,6.73-.22,4.45-2.94,6.11-7.18,6.66-13.65,1.76-27.49,2.83-40.81,6-16,3.83-30.34,11.68-41.43,24.5-3.07,3.54-7.13,3.85-10.09,1.21s-3.1-6.6,0-10.22c11.88-13.79,27.1-22.64,44.32-27.51,13.36-3.77,27.2-5.84,40.83-8.66Z" transform="translate(-65.51 -37.48)"/><path class="cls-1" d="M294.09,562.31v29.54H264.4V562.31Z" transform="translate(-65.51 -37.48)"/><path class="cls-1" d="M571.76,642.68c.13-3.34,1.47-6.21,5.54-6.71,3.36-.41,6.69,3.15,6.63,7.32-.06,3.92-3.13,5.26-6.36,5.73S571.88,646.86,571.76,642.68Z" transform="translate(-65.51 -37.48)"/><path class="cls-1" d="M533.85,648.85c-.6,3.24-.76,6.65-2,9.65-.64,1.61-3.12,3.52-4.71,3.46-1.87-.07-5.12-2-5.24-3.34a114.08,114.08,0,0,1,0-19c.11-1.36,3.06-3.53,4.64-3.47a7.21,7.21,0,0,1,5.28,3.45C533.14,642.32,533.23,645.64,533.85,648.85Z" transform="translate(-65.51 -37.48)"/><path class="cls-1" d="M647.56,326a9.71,9.71,0,0,1-9.69-9.88,9.84,9.84,0,1,1,19.68.27A9.76,9.76,0,0,1,647.56,326Z" transform="translate(-65.51 -37.48)"/></svg>