<svg id="Capa_1" data-name="Capa 1" xmlns="http://www.w3.org/2000/svg" viewBox="0 0 900 900"><defs><style>.cls-1,.cls-3{fill:#2b2b2b;}.cls-1{stroke:#2b2b2b;stroke-miterlimit:10;stroke-width:3px;}.cls-2{fill:#fff;}</style></defs><path class="cls-1" d="M450.32,383.54c71.32-.37,128.27-57.56,128-128.42C578,183.77,521.07,127.06,449.87,127.2A127.61,127.61,0,0,0,321.93,255.57C322.1,326.76,379.52,383.91,450.32,383.54Z" transform="translate(0 0)"/><path class="cls-1" d="M672.86,519.8c-16.41-30.39-40.2-50-76-52a17.42,17.42,0,0,0-6.93,1.07c-31.17,44.12-73.6,69.79-129.1,73.55-64.32,4.35-118.91-27.32-151.07-74a8.35,8.35,0,0,0-3.73-.85c-22.22,1.09-42.15,8.05-58.1,24.13C234.72,505,225.47,521,218.72,538.45c-17.25,44.5-21.44,91.09-20.27,138.21.47,18.71,6.48,34.9,18.47,47.52l.69.36a502,502,0,0,0,465.15-.18l.64-.33c12.32-13.81,18.89-33,18.63-56.3-.23-18.05-.91-36.18-2.93-54.11C695.44,581,688.68,549.11,672.86,519.8Z" transform="translate(0 0)"/><path class="cls-2" d="M0,0V900H900V0ZM321,145.82c25.48-28.78,56.13-48.61,94.11-56.35,6.46-1.31,13-2.34,19.47-3.49h31.56c9.14,1.82,18.34,3.39,27.41,5.52,62.29,14.6,115.52,74,123.87,137.61,5.51,41.84-.53,81.4-24.19,116.8-31.43,47-74.86,74.38-132.31,78.27-75.43,5.09-137.49-39.28-165.64-99.53C268.77,268.09,279.47,192.72,321,145.82ZM743,674.75a126.7,126.7,0,0,1-.85,13.48l0,0a114.45,114.45,0,0,1-18.7,51,538.49,538.49,0,0,1-64.62,32.61q-23.06,9.74-46.72,17.24a539.62,539.62,0,0,1-324,.06q-23.78-7.51-46.88-17.3a535.65,535.65,0,0,1-64.92-32.8,102.19,102.19,0,0,1-17.79-50.19l0-.18,0,0c-5-58.21,1.88-115.27,23.78-169.77,13.06-32.36,32.64-60.22,64.68-77.3a128.94,128.94,0,0,1,42.19-13.93c.86,2.6,1.8,5.16,2.81,7.7-1-2.54-1.95-5.1-2.81-7.7a132.33,132.33,0,0,1,21.79-1.35c7.07.15,14.52,3.78,21,7.31,2.4,1.31,4.76,2.69,7.1,4.12a128.46,128.46,0,0,0,222.38-.21l.74-.55c14.44-10.9,30.38-12.15,47.57-9.54.44.08.91.17,1.42.23v0c44,7.11,75.33,31.53,96.68,70.11,19.79,35.69,28.57,74.56,32.54,114.6A561.55,561.55,0,0,1,743,674.75Z" transform="translate(0 0)"/><path class="cls-3" d="M460.87,424.19c57.45-3.89,100.88-31.27,132.31-78.27,23.66-35.4,29.7-75,24.19-116.8-8.35-63.58-61.58-123-123.87-137.61-9.07-2.13-18.27-3.7-27.41-5.52H434.53c-6.49,1.15-13,2.18-19.47,3.49-38,7.74-68.63,27.57-94.11,56.35-41.48,46.9-52.18,122.27-25.72,178.84C323.38,384.91,385.44,429.28,460.87,424.19Zm-11-297c71.2-.14,128.12,56.57,128.41,127.92.31,70.86-56.64,128.05-128,128.42-70.8.37-128.22-56.78-128.39-128A127.61,127.61,0,0,1,449.87,127.2Z" transform="translate(0 0)"/><path class="cls-3" d="M707.8,497.82c-21.35-38.58-52.65-63-96.68-70.11v0c-.51-.06-1-.15-1.42-.23-17.19-2.61-33.13-1.36-47.57,9.54l-.74.55a128.46,128.46,0,0,1-222.38.21c-2.34-1.43-4.7-2.81-7.1-4.12-6.47-3.53-13.92-7.16-21-7.31a132.33,132.33,0,0,0-21.79,1.35c.86,2.6,1.8,5.16,2.81,7.7s2.1,5,3.25,7.52c.52,1.11,1.05,2.21,1.59,3.31-.54-1.1-1.07-2.2-1.59-3.31-1.15-2.48-2.24-5-3.25-7.52s-1.95-5.1-2.81-7.7A128.94,128.94,0,0,0,247,441.61c-32,17.08-51.62,44.94-64.68,77.3-21.9,54.5-28.77,111.56-23.78,169.77l0,0,0,.18a102.19,102.19,0,0,0,17.79,50.19,535.65,535.65,0,0,0,64.92,32.8q23.11,9.78,46.88,17.3a539.62,539.62,0,0,0,324-.06q23.67-7.51,46.72-17.24a538.49,538.49,0,0,0,64.62-32.61,114.45,114.45,0,0,0,18.7-51l0,0a126.7,126.7,0,0,0,.85-13.48,561.55,561.55,0,0,0-2.67-62.33C736.37,572.38,727.59,533.51,707.8,497.82ZM683.4,724l-.64.33a502,502,0,0,1-465.15.18l-.69-.36c-12-12.62-18-28.81-18.47-47.52-1.17-47.12,3-93.71,20.27-138.21,6.75-17.41,16-33.43,29.25-46.79,16-16.08,35.88-23,58.1-24.13a8.35,8.35,0,0,1,3.73.85c-.7-1-1.38-2-2.06-3.05.68,1,1.36,2,2.06,3.05,32.16,46.72,86.75,78.39,151.07,74,55.5-3.76,97.93-29.43,129.1-73.55a17.42,17.42,0,0,1,6.93-1.07c35.76,2,59.55,21.61,76,52,15.82,29.31,22.58,61.22,26.24,93.82,2,17.93,2.7,36.06,2.93,54.11C702.29,691,695.72,710.22,683.4,724Z" transform="translate(0 0)"/></svg>