<svg id="Capa_1" data-name="Capa 1" xmlns="http://www.w3.org/2000/svg" viewBox="0 0 336.15 171.36"><defs><style>.cls-1{fill:#ed5929;}.cls-2{fill:#4fb206;}.cls-3{fill:#f6b50a;}.cls-4{fill:#2b2b2b;}.cls-5,.cls-6{fill:#fff;}.cls-6{stroke:#fff;stroke-miterlimit:10;}</style></defs><path class="cls-1" d="M791.92,540c0,.26,0,.51,0,.76h85.31c0-.25,0-.5,0-.76a82.93,82.93,0,0,1,40.29-71.17L874.91,395A168,168,0,0,0,791.92,540Z" transform="translate(-791.92 -371.92)"/><path class="cls-2" d="M960,371.92A167.22,167.22,0,0,0,874.91,395l42.6,73.79a83,83,0,0,1,85.1-.2L1045.09,395A167.22,167.22,0,0,0,960,371.92Z" transform="translate(-791.92 -371.92)"/><path class="cls-3" d="M1045.09,395l-42.48,73.59A83,83,0,0,1,1043.24,540c0,.26,0,.51,0,.76h84.85c0-.25,0-.5,0-.76A168,168,0,0,0,1045.09,395Z" transform="translate(-791.92 -371.92)"/><path class="cls-4" d="M959.87,557.44" transform="translate(-791.92 -371.92)"/><path class="cls-5" d="M940.14,540.26v0L1011,508.05l0-.25-77.27-6a21,21,0,1,0,6.41,38.47Zm-21.08-16.15a10.43,10.43,0,1,1,12.09,8.47A10.43,10.43,0,0,1,919.06,524.11Z" transform="translate(-791.92 -371.92)"/><path class="cls-6" d="M1046.33,478.28a22.92,22.92,0,1,1,22.85,23A22.95,22.95,0,0,1,1046.33,478.28Zm43,.06a20,20,0,1,0-20.06,20A20,20,0,0,0,1089.28,478.34Z" transform="translate(-791.92 -371.92)"/><path class="cls-6" d="M1064.94,472.57a2.86,2.86,0,1,1-2.84-2.84A2.84,2.84,0,0,1,1064.94,472.57Z" transform="translate(-791.92 -371.92)"/><path class="cls-6" d="M1076.39,475.46a2.88,2.88,0,0,1-2.84-2.92,2.86,2.86,0,0,1,5.72,0A2.89,2.89,0,0,1,1076.39,475.46Z" transform="translate(-791.92 -371.92)"/><rect class="cls-6" x="264.13" y="111.76" width="26.71" height="2.87" rx="1.2"/></svg>