<svg xmlns="http://www.w3.org/2000/svg" viewBox="0 0 49.8 49.8"><defs><style>.cls-1{fill:#fff;}.cls-2{fill:#d12609;}</style></defs><g id="Capa_2" data-name="Capa 2"><path class="cls-1" d="M45.25,11.68A7.49,7.49,0,0,0,37.61,4q-12.48,0-25,0A7.49,7.49,0,0,0,5,11.68q0,12.48,0,25a8,8,0,0,0,.43,2.58,7.39,7.39,0,0,0,7.2,5.07H25.07c4.18,0,8.36,0,12.54,0a7.49,7.49,0,0,0,7.64-7.65Q45.28,24.16,45.25,11.68Z" transform="translate(-0.15 -0.19)"/></g><g id="Capa_1" data-name="Capa 1"><path class="cls-2" d="M25,50c-5.12,0-10.24,0-15.36,0A9.16,9.16,0,0,1,.71,43.71a10.16,10.16,0,0,1-.53-3.19Q.12,25.09.16,9.65A9.27,9.27,0,0,1,9.62.2q15.44,0,30.86,0a9.26,9.26,0,0,1,9.46,9.45q0,15.44,0,30.87A9.28,9.28,0,0,1,40.48,50C35.32,50,30.15,50,25,50ZM12.33,35.68a12.38,12.38,0,0,1,5.92,1c1.86.74,3.82,1.21,5.72,1.83a4.26,4.26,0,0,0,3.1-.23l13.68-5.91c1.09-.48,1.51-1.31,1.14-2.22a1.67,1.67,0,0,0-2.37-.82c-2.18.79-4.35,1.6-6.53,2.37A17.05,17.05,0,0,1,28.94,33c-2.37.22-4.78.08-7.17.07a.58.58,0,0,1-.43-.3.55.55,0,0,1,.09-.51,1.4,1.4,0,0,1,.73-.2c2,0,4,0,6,0a3.28,3.28,0,0,0,1.72-.58,1.21,1.21,0,0,0,.23-1.54A1.44,1.44,0,0,0,28.76,29c-1.35,0-2.71.05-4.06,0a5.9,5.9,0,0,1-2.06-.52c-1.12-.5-2.16-1.18-3.28-1.68a5.68,5.68,0,0,0-2.06-.51c-1.39-.08-2.8,0-4.2,0l-.77.05Zm28.31-17a10.59,10.59,0,0,0-21.16,0Zm-22.5,1.08a2.85,2.85,0,0,0,3,2.47H35.85c1.13,0,2.27,0,3.4,0a2.74,2.74,0,0,0,2.69-2.46Zm-10,17.86h3.14V23.4H8.09Z" transform="translate(-0.15 -0.19)"/><path class="cls-2" d="M29.16,10.82c-.14.09-.32.31-.53.36a8.54,8.54,0,0,0-5.29,3.27c-.13.17-.52.13-.78.19,0-.28-.12-.63,0-.81a9,9,0,0,1,5.76-3.67C28.75,10.07,29.12,10.13,29.16,10.82Z" transform="translate(-0.15 -0.19)"/></g></svg>