<svg xmlns="http://www.w3.org/2000/svg" viewBox="0 0 343.63 343.61"><defs><style>.cls-1{fill:#fff;}.cls-2{fill:#d12609;}</style></defs><g id="Capa_2" data-name="Capa 2"><path class="cls-1" d="M1098.5,449c0-30.08-22.71-52.71-52.76-52.76q-86.13-.13-172.25,0c-30,.05-52.72,22.72-52.77,52.76q-.13,86.13.1,172.25a56.36,56.36,0,0,0,2.95,17.81c7.47,21.7,26.52,34.9,49.72,35,28.57.09,57.14,0,85.72,0,28.84,0,57.68.09,86.52,0,30.07-.12,52.71-22.7,52.77-52.78Q1098.67,535.14,1098.5,449Z" transform="translate(-787.3 -369.72)"/></g><g id="Capa_1" data-name="Capa 1"><path class="cls-2" d="M958.6,713.29c-35.32,0-70.65.08-106,0-28.69-.09-52.23-16.42-61.48-43.24a69.77,69.77,0,0,1-3.64-22q-.39-106.49-.12-213c.06-37.14,28.09-65.18,65.24-65.24q106.49-.17,213,0c37.16.06,65.17,28.05,65.24,65.24q.2,106.48,0,213c-.07,37.19-28.07,65.11-65.24,65.25C1029.93,713.4,994.26,713.29,958.6,713.29Zm-87.26-98.67c14.6-1.42,27.77,1.64,40.86,6.83,12.8,5.08,26.31,8.36,39.44,12.63,7.43,2.42,14.42,1.4,21.37-1.6q47.21-20.41,94.43-40.8c7.51-3.25,10.42-9,7.85-15.29s-8.6-8.46-16.37-5.64c-15,5.46-30,11-45.05,16.36-9.25,3.28-18.43,8.09-28,9-16.36,1.53-32.95.56-49.44.48a4,4,0,0,1-3-2.1c-.41-1-.13-3.09.58-3.54a10.08,10.08,0,0,1,5.07-1.34c13.83-.1,27.67.23,41.49-.24a22.72,22.72,0,0,0,11.86-4c3.2-2.29,3.33-6.68,1.56-10.57a9.89,9.89,0,0,0-9.4-6.28c-9.33-.13-18.68.31-28-.25a41.61,41.61,0,0,1-14.24-3.55c-7.73-3.47-14.9-8.18-22.63-11.65a41.07,41.07,0,0,0-14.18-3.52c-9.64-.53-19.32-.17-29-.14-1.75,0-3.49.18-5.32.28Zm195.35-117.4c-.76-39.66-36.61-71.92-77.3-69.54-43.74,2.55-69.07,40-68.7,69.54Zm-155.25,7.49c2.32,11.08,9.61,17,20.69,17.05q50.73.09,101.47,0c7.83,0,15.67.15,23.49-.09a18.94,18.94,0,0,0,18.53-17ZM842.06,627.92h21.66v-98H842.06Z" transform="translate(-787.3 -369.72)"/><path class="cls-2" d="M987.47,443.05c-1,.68-2.21,2.2-3.69,2.49a58.94,58.94,0,0,0-36.48,22.6c-.88,1.14-3.56.89-5.4,1.28,0-1.89-.83-4.35.06-5.6,9.8-13.79,23.28-22,39.78-25.32C984.65,437.91,987.16,438.3,987.47,443.05Z" transform="translate(-787.3 -369.72)"/></g></svg>