<svg xmlns="http://www.w3.org/2000/svg" viewBox="0 0 49.8 49.8"><defs><style>.cls-1{fill:#fff;}.cls-2{fill:#d12609;}</style></defs><g id="Capa_2" data-name="Capa 2"><path class="cls-1" d="M45.25,11.68A7.49,7.49,0,0,0,37.61,4q-12.48,0-25,0A7.49,7.49,0,0,0,5,11.68q0,12.48,0,25a8,8,0,0,0,.43,2.58,7.39,7.39,0,0,0,7.2,5.07H25.07c4.18,0,8.36,0,12.54,0a7.49,7.49,0,0,0,7.64-7.65Q45.28,24.16,45.25,11.68Z" transform="translate(-0.23 -0.08)"/></g><g id="Capa_3" data-name="Capa 3"><path class="cls-2" d="M50,9.55A9.27,9.27,0,0,0,40.56.09Q25.13.06,9.69.09A9.27,9.27,0,0,0,.24,9.55q0,15.42,0,30.86A10.15,10.15,0,0,0,.78,43.6a9.17,9.17,0,0,0,8.91,6.27c5.12,0,10.24,0,15.36,0s10.34,0,15.51,0A9.27,9.27,0,0,0,50,40.41Q50,25,50,9.55Z" transform="translate(-0.23 -0.08)"/><path class="cls-1" d="M11.67,32.75V22.9a3.37,3.37,0,0,1,3.56-3.56H35a3.37,3.37,0,0,1,3.56,3.56v9.85Zm9-10H17.35a1.11,1.11,0,0,0-1.19,1.18c0,1.45,0,2.89,0,4.34a1.12,1.12,0,0,0,1.2,1.2h6.56a1.12,1.12,0,0,0,1.21-1.2v-4.3A1.13,1.13,0,0,0,23.9,22.7Zm9,1.12a1.13,1.13,0,0,0-1.11-1.12,1.12,1.12,0,1,0,0,2.24A1.13,1.13,0,0,0,29.62,23.82ZM33,24.94a1.12,1.12,0,1,0-1.14-1.1A1.14,1.14,0,0,0,33,24.94Zm-3.38,3.38a1.14,1.14,0,0,0-1.1-1.14,1.12,1.12,0,0,0,0,2.24A1.15,1.15,0,0,0,29.62,28.32Zm4.48,0A1.11,1.11,0,0,0,33,27.18a1.13,1.13,0,0,0-1.13,1.14A1.14,1.14,0,0,0,33,29.42,1.12,1.12,0,0,0,34.1,28.29Z" transform="translate(-0.23 -0.08)"/><path class="cls-1" d="M25.17,35H39.5c.91,0,1.34.42,1.34,1.32v3a1.14,1.14,0,0,1-1.25,1.23H10.67a1.14,1.14,0,0,1-1.25-1.23V36.26A1.13,1.13,0,0,1,10.69,35Z" transform="translate(-0.23 -0.08)"/><path class="cls-1" d="M33,14.86v2.23H28.51V14.86H25.19A1.12,1.12,0,0,1,24,13.67q0-1.61,0-3.21a1.11,1.11,0,0,1,1.18-1.19H36.3a1.12,1.12,0,0,1,1.17,1.16c0,1.1,0,2.19,0,3.29a1.11,1.11,0,0,1-1.16,1.14Z" transform="translate(-0.23 -0.08)"/></g></svg>