<svg id="Capa_3" data-name="Capa 3" xmlns="http://www.w3.org/2000/svg" viewBox="0 0 343.63 343.61"><defs><style>.cls-1{fill:#d12609;}.cls-2{fill:#fff;}</style></defs><path class="cls-1" d="M1131.34,434.29c-.07-37.2-28.08-65.18-65.24-65.24q-106.48-.18-213,0c-37.15.06-65.19,28.09-65.25,65.23q-.17,106.49.13,213a69.72,69.72,0,0,0,3.64,22c9.24,26.83,32.79,43.15,61.48,43.24,35.32.11,70.65,0,106,0,35.66,0,71.32.1,107,0,37.18-.14,65.17-28.07,65.24-65.26Q1131.54,540.77,1131.34,434.29Z" transform="translate(-787.8 -368.96)"/><path class="cls-2" d="M866.75,594.41v-7.88q0-30.06,0-60.11c0-14.67,9.86-24.53,24.55-24.53H1028c14.7,0,24.54,9.84,24.55,24.53q0,32.72,0,65.42v2.57Zm61.93-69.35c-7.58,0-15.16,0-22.73,0-5,0-8.2,3.18-8.22,8.13q-.06,15,0,29.93c0,5.07,3.22,8.26,8.33,8.27q22.62,0,45.23,0c5.14,0,8.33-3.16,8.35-8.26q0-14.85,0-29.69c0-5.22-3.2-8.37-8.46-8.39C943.68,525,936.18,525.06,928.68,525.06Zm61.92,7.76a7.73,7.73,0,1,0-7.7,7.68A7.75,7.75,0,0,0,990.6,532.82ZM1014,540.5a7.72,7.72,0,1,0-7.84-7.55A7.79,7.79,0,0,0,1014,540.5ZM990.6,563.82a7.73,7.73,0,1,0-7.8,7.58A7.74,7.74,0,0,0,990.6,563.82Zm31-.18a7.73,7.73,0,1,0-7.63,7.76A7.76,7.76,0,0,0,1021.57,563.64Z" transform="translate(-787.8 -368.96)"/><path class="cls-2" d="M959.89,610h98.94c6.26,0,9.19,2.91,9.19,9.12q0,10.5,0,21c0,5.38-3.16,8.5-8.59,8.5H859.86c-5.45,0-8.57-3.11-8.58-8.51q0-10.74,0-21.48c0-5.6,3.07-8.62,8.71-8.62Z" transform="translate(-787.8 -368.96)"/><path class="cls-2" d="M1013.79,471v15.33H983V471h-2.82c-6.69,0-13.38,0-20.07,0-4.93,0-8.14-3.25-8.16-8.19q-.06-11.1,0-22.2c0-5,3.18-8.21,8.13-8.21q38.33,0,76.65,0a7.68,7.68,0,0,1,8.09,8q.07,11.34,0,22.68a7.64,7.64,0,0,1-8,7.9C1029.26,471,1021.7,471,1013.79,471Z" transform="translate(-787.8 -368.96)"/></svg>