<svg id="Capa_1" data-name="Capa 1" xmlns="http://www.w3.org/2000/svg" viewBox="0 0 826.55 563.19"><defs><style>.cls-1{fill:#edebeb;}.cls-2{fill:#d1c7c7;}.cls-3{fill:#2d2d2d;}.cls-4{fill:#7b706c;}.cls-5{fill:#1e232d;}.cls-6{fill:#fdfdfd;}</style></defs><path class="cls-1" d="M660.46,829.15c.16-40.2.22-80.4.49-120.6s-4.87-34.61,36.1-35c94.3.11,188.61.49,282.92,0,15-.08,21,3.6,20.66,19.77-1.07,45.29-.55,90.61-.66,135.91ZM946.7,713.85c-11.55-8.5-17.77-5.79-17.85,8.76-.12,25.12-.38,50.24.09,75.34.44,23.37,18.88,12.21,29.79,14.27,11.21,2.11,20.35,0,19.47-15.63-1.25-22.08-1-44.25-1.41-66.38C978.51,703.14,957.57,717.77,946.7,713.85Z" transform="translate(-570.94 -289.4)"/><path class="cls-2" d="M1000,829.25c.11-45.3-.41-90.62.66-135.91.38-16.17-5.62-19.85-20.66-19.77-94.31.45-188.62.07-282.92,0-2.89-18.69,7.28-22.79,23.46-22.56,39.38.55,78.82-1,118.13.65,24.1,1,18.2-14.24,19.5-27.54,1.58-16.1-3.23-23.29-20.75-22-10,.75-23.09,5.56-29.14-9,83.3,0,166.6-.29,249.9.32,19.17.14,31.36-3.81,32.46-26.16.8-16.1,5-32.06,8.07-48,7.39-38.22,15-76.4,22.54-114.6,7.62,7.56,4.62,17,3.24,25.3-8.4,50.29-17.84,100.4-26.24,150.69-4.93,29.51-27.24,20.55-45.19,21.71L1032.34,604l-83.4-1.39c-12.57,0-25.15.22-37.71-.07-8.77-.21-15.34,2.37-13.55,12.29,2.17,12-8.37,30.36,7.62,34.81,15.68,4.36,34.48,6.74,50.75-3.38,26.83,2.78,53.52,9,80.7,3.28,6.81,5,11.31-4.59,17.61-2.78,10.32,5.25,28.72,0,27,21-.25,3.14,2.65,5,5.91,5.38,2.2.23,4.42.25,6.63.44,21.84,1.88,52-10,63.54,5,13.27,17.3,2.9,47,4,71.3.12,2.94-.23,5.91-.36,8.87-33.11,13-67.88,20.18-102.22,28.71-22.77,5.65-36,16.75-32.6,41.82Z" transform="translate(-570.94 -289.4)"/><path class="cls-3" d="M1000,829.25l26.26,0c26,.23,52,.19,77.93.8,10.64.26,16.93-2.19,16.57-14.59-.47-15.69,10.87-21.76,23.69-25.22,24.24-6.54,48.74-12.14,72.88-19,7.23-2.06,16.94-1.29,20-11.28l13.48-1.21c7.73-1.83,18.49,4.44,22.14-8.28l22-.52q4.5,8.88,9,0c17.38-1.19,23.93,9.62,25.51,24.37,1.11,10.3.38,20.8.4,31.2,0,31.89,4.25,35.26,36.22,26.45a57.92,57.92,0,0,1,15.12-2c18.75-.19,19.28.86,11.68,21.42-1.43-1.79-2.71-1.81-3.82.32-5.17.33-10.35.94-15.52.94q-389,.08-778.07,0c-5.18,0-10.35-.61-15.52-.94-1.11-2.17-2.4-2.08-3.84-.32-8-13.38-8.59-22.26,11.35-21.83,24.31.53,48.65-.16,73-.32Z" transform="translate(-570.94 -289.4)"/><path class="cls-1" d="M1121.22,404.69c-7.53,38.2-15.15,76.38-22.54,114.6-3.08,16-7.27,31.91-8.07,48-1.1,22.35-13.29,26.3-32.46,26.16-83.3-.61-166.6-.3-249.9-.32-8.09-3.84-9.53-10.39-8-18.53C810,521.9,820.28,469.28,829,416.4c3-18.42,11.71-26,29.62-24.44l38.45.08q99.81.06,199.62.14C1106.94,392.19,1118.28,390.25,1121.22,404.69ZM945.14,572.29c35.68,0,71.37.05,107.05,0,7.9,0,16.73,2.07,18.78-10q11.41-67.68,23.52-135.26c1.82-10.17-.26-14.78-12-14.71-72.85.41-145.71.24-218.56.15-8.13,0-13.9,1.06-15.57,11.24q-10.95,67-23.37,133.75c-2.28,12.12,1.18,15.34,13.09,15.13C873.77,571.89,909.46,572.29,945.14,572.29Z" transform="translate(-570.94 -289.4)"/><path class="cls-4" d="M1237.34,759.92c-3.1,10-12.81,9.22-20,11.28-24.14,6.87-48.64,12.47-72.88,19-12.82,3.46-24.16,9.53-23.69,25.22.36,12.4-5.93,14.85-16.57,14.59-26-.61-52-.57-77.93-.8-3.39-25.07,9.83-36.17,32.6-41.82,34.34-8.53,69.11-15.74,102.22-28.71,11,1.28,20.68-4.34,31.12-6C1205.68,764.69,1222.67,755.07,1237.34,759.92Z" transform="translate(-570.94 -289.4)"/><path class="cls-1" d="M1237.34,759.92c-14.67-4.85-31.66,4.77-45.17-7.26,5.08-16.79,9.2-34,15.47-50.29,11.6-30.21,23.75-37.62,57.15-37.64h27.3c-25.08,23.83-37.35,51.32-37.07,83.94l-4.2,10Z" transform="translate(-570.94 -289.4)"/><path class="cls-1" d="M955.84,343.43c-18.92,8.27-38.87,1.18-58.16,3.94H858c-26.66-.1-53.35-.91-80,0-16.86.57-24-4.67-23.79-22.66.37-35.28-.49-35.36,35.23-35.28q78.88.16,157.75.49C956.84,306.65,944,327,955.84,343.43Zm-106.48-6.9c25.2,0,50.42-.46,75.62.14,22.48.53,9.92-16.71,13.08-25.51,4.11-11.47-3.92-13.18-13.52-13.13-48.93.25-97.88.92-146.79-.31-17.48-.44-14.26,9.63-14.47,19.59-.22,10.54-1.95,20.56,14.92,19.61C801.85,335.58,825.63,336.58,849.36,336.53Z" transform="translate(-570.94 -289.4)"/><path class="cls-2" d="M858,347.38h39.68l-.6,44.67L858.62,392Q858.32,369.67,858,347.38Z" transform="translate(-570.94 -289.4)"/><path class="cls-3" d="M1032.34,604l20.69-1.57c-1.7,14.84,9.71,29.29,1.33,44.33-6.3-1.81-10.8,7.82-17.62,2.79Q1034.53,626.74,1032.34,604Z" transform="translate(-570.94 -289.4)"/><path class="cls-2" d="M955.84,343.43c-11.83-16.4,1-36.78-8.63-53.53,6.77-.47,12.36,2.52,12.19,9.2C959,313.9,964.21,329.27,955.84,343.43Z" transform="translate(-570.94 -289.4)"/><path class="cls-4" d="M1250.82,758.71l4.2-10,17.94,1.76C1269.31,763.15,1258.55,756.88,1250.82,758.71Z" transform="translate(-570.94 -289.4)"/><path class="cls-1" d="M1304,749.91q-4.49,8.88-9,0Q1299.49,742.47,1304,749.91Z" transform="translate(-570.94 -289.4)"/><path class="cls-5" d="M576.14,851.3c1.44-1.76,2.73-1.85,3.84.32l-2,.4Z" transform="translate(-570.94 -289.4)"/><path class="cls-5" d="M1389.09,851.62c1.11-2.13,2.39-2.11,3.82-.32l-1.86.72Z" transform="translate(-570.94 -289.4)"/><path class="cls-2" d="M976.79,730.21c.4,22.13.16,44.3,1.41,66.38.88,15.61-8.26,17.74-19.47,15.63-10.91-2.06-29.35,9.1-29.79-14.27-.47-25.1-.21-50.22-.09-75.34.08-14.55,6.3-17.26,17.85-8.76C943.52,743.61,964.06,729.72,976.79,730.21Z" transform="translate(-570.94 -289.4)"/><path class="cls-3" d="M976.79,730.21c-12.73-.49-33.27,13.4-30.09-16.36C957.57,717.77,978.51,703.14,976.79,730.21Z" transform="translate(-570.94 -289.4)"/><path class="cls-4" d="M1032.34,604q2.21,22.78,4.4,45.55c-27.17,5.68-53.86-.51-80.69-3.29l-7.11-43.65Z" transform="translate(-570.94 -289.4)"/><path class="cls-6" d="M948.94,602.57l7.11,43.65C939.78,656.34,921,654,905.3,649.6c-16-4.45-5.45-22.81-7.62-34.81-1.79-9.92,4.78-12.5,13.55-12.29C923.79,602.79,936.37,602.57,948.94,602.57Z" transform="translate(-570.94 -289.4)"/><path class="cls-5" d="M945.14,572.29c-35.68,0-71.37-.4-107,.22-11.91.21-15.37-3-13.09-15.13q12.5-66.72,23.37-133.75c1.67-10.18,7.44-11.25,15.57-11.24,72.85.09,145.71.26,218.56-.15,11.72-.07,13.8,4.54,12,14.71q-12.06,67.57-23.52,135.26c-2,12.12-10.88,10-18.78,10C1016.51,572.34,980.82,572.29,945.14,572.29Z" transform="translate(-570.94 -289.4)"/><path class="cls-5" d="M849.36,336.55c-23.73,0-47.51-1-71.16.37-16.87.95-15.14-9.07-14.92-19.61.21-10-3-20,14.47-19.59,48.91,1.23,97.86.56,146.79.31,9.6,0,17.63,1.66,13.52,13.13-3.16,8.8,9.4,26-13.08,25.51C899.78,336.07,874.56,336.53,849.36,336.55Z" transform="translate(-570.94 -289.4)"/></svg>