<?xml version="1.0" standalone="no"?>
<!DOCTYPE svg PUBLIC "-//W3C//DTD SVG 20010904//EN"
 "http://www.w3.org/TR/2001/REC-SVG-20010904/DTD/svg10.dtd">
<svg version="1.0" xmlns="http://www.w3.org/2000/svg"
 width="512.000000pt" height="512.000000pt" viewBox="0 0 512.000000 512.000000"
 preserveAspectRatio="xMidYMid meet">
<metadata>
Created by potrace 1.16, written by Peter Selinger 2001-2019
</metadata>
<g transform="translate(0.000000,512.000000) scale(0.100000,-0.100000)"
fill="#000000" stroke="none">
<path d="M2295 4785 c-362 -56 -694 -225 -954 -486 -264 -264 -436 -587 -530
-996 -12 -51 -20 -96 -19 -100 1 -4 -2 -292 -6 -640 l-8 -631 -52 -89 c-29
-48 -97 -160 -151 -248 -265 -432 -255 -413 -255 -467 0 -62 21 -107 63 -139
l32 -24 753 -3 752 -2 0 -48 c1 -178 117 -376 285 -489 112 -74 210 -103 355
-103 145 0 243 29 355 103 169 113 284 311 285 490 l0 47 743 0 c686 0 745 1
777 18 53 26 80 74 80 141 0 66 -9 82 -140 241 -100 120 -192 233 -359 441
l-118 146 -7 589 c-9 664 -10 690 -32 794 -176 817 -642 1338 -1299 1450 -137
23 -418 26 -550 5z m495 -330 c295 -49 544 -210 729 -471 127 -181 212 -374
283 -644 l30 -115 13 -691 c15 -785 4 -702 113 -837 37 -46 124 -153 193 -239
69 -85 129 -160 133 -166 5 -9 -422 -12 -1753 -12 l-1760 0 28 47 c16 27 75
122 131 213 57 91 120 194 141 231 l38 65 6 640 c3 351 8 662 10 690 3 28 16
95 30 149 169 650 673 1105 1280 1154 114 9 246 4 355 -14z m78 -3543 c-9 -94
-74 -185 -168 -234 -38 -19 -60 -23 -140 -23 -80 0 -102 4 -140 23 -94 49
-159 140 -168 234 l-5 48 313 0 313 0 -5 -48z"/>
</g>
</svg>
