<svg xmlns="http://www.w3.org/2000/svg" viewBox="0 0 49.8 49.8"><defs><style>.cls-1{fill:#fff;}.cls-2{fill:#d12609;}</style></defs><g id="Capa_2" data-name="Capa 2"><path class="cls-1" d="M45.25,11.68A7.49,7.49,0,0,0,37.61,4q-12.48,0-25,0A7.49,7.49,0,0,0,5,11.68q0,12.48,0,25a8,8,0,0,0,.43,2.58,7.39,7.39,0,0,0,7.2,5.07H25.07c4.18,0,8.36,0,12.54,0a7.49,7.49,0,0,0,7.64-7.65Q45.28,24.16,45.25,11.68Z" transform="translate(-0.23 -0.08)"/></g><g id="Capa_3" data-name="Capa 3"><path class="cls-2" d="M50,9.55A9.27,9.27,0,0,0,40.56.09Q25.13.06,9.69.09A9.27,9.27,0,0,0,.24,9.55q0,15.42,0,30.86A10.15,10.15,0,0,0,.78,43.6a9.17,9.17,0,0,0,8.91,6.27c5.12,0,10.24,0,15.36,0s10.34,0,15.51,0A9.27,9.27,0,0,0,50,40.41Q50,25,50,9.55Z" transform="translate(-0.23 -0.08)"/><path class="cls-1" d="M8.21,21.84A1.27,1.27,0,0,1,9.56,21q10.74,0,21.46,0c1,0,1.37.4,1.32,1.39a8.62,8.62,0,0,1-7.5,8.23,9.39,9.39,0,0,1-1.19.07c-2.25,0-4.5,0-6.74,0A8.65,8.65,0,0,1,8.38,23.8c-.06-.31-.11-.62-.17-.93Z" transform="translate(-0.23 -0.08)"/><path class="cls-1" d="M24.55,38.76H21.39c0,.26,0,.49,0,.73a1,1,0,1,1-2.09,0v-.68H16.15v.7a1.05,1.05,0,1,1-2.1,0c0-.24,0-.47,0-.76H10.37a1,1,0,0,1-.3-2,1.4,1.4,0,0,1,.41-.05H30.23a1.05,1.05,0,0,1,1.11,1,1,1,0,0,1-1.1,1h-3.6c0,.26,0,.49,0,.72a1,1,0,1,1-2.08,0C24.54,39.25,24.55,39,24.55,38.76Z" transform="translate(-0.23 -0.08)"/><path class="cls-1" d="M32,27.09c.26-.67.49-1.32.76-1.95,0-.08.22-.13.34-.13,2,0,4,0,5.95,0,.64,0,1.27,0,1.91,0a1.05,1.05,0,1,1,0,2.1H32.14Z" transform="translate(-0.23 -0.08)"/><path class="cls-1" d="M22.91,35.45H17.77c.05-.21.07-.41.13-.59a8.24,8.24,0,0,1,2.21-3.16.44.44,0,0,1,.44,0,7.42,7.42,0,0,1,2.36,3.65Z" transform="translate(-0.23 -0.08)"/><path class="cls-1" d="M15.7,35.45H12.54c.17-.44.28-.86.47-1.24a9.55,9.55,0,0,1,1.86-2.47c.2-.19.4-.23.6,0l.94,1a.33.33,0,0,1,.05.27A6,6,0,0,0,15.7,35.45Z" transform="translate(-0.23 -0.08)"/><path class="cls-1" d="M25,35.44a6.12,6.12,0,0,0-.75-2.4.36.36,0,0,1,0-.32c.28-.34.58-.66.88-1,.17-.17.36-.22.54,0a8.46,8.46,0,0,1,2.21,3.17,2.11,2.11,0,0,1,.09.36,1.6,1.6,0,0,1,0,.22Z" transform="translate(-0.23 -0.08)"/><path class="cls-1" d="M14,19.43a1.37,1.37,0,0,1-.58-.12c-1.33-.61-3.23-2.4-.95-4.82l0,0c.93-.9,1.09-1.64.44-2-.37-.22-.37-.57,0-.78a1.42,1.42,0,0,1,1.33,0c.62.36,1.85,1.42-.15,3.37-.86.92-1,1.76-.56,2.51a3,3,0,0,0,1,.89c.41.18.48.53.16.77A1.25,1.25,0,0,1,14,19.43Z" transform="translate(-0.23 -0.08)"/><path class="cls-1" d="M19,19.43a1.17,1.17,0,0,1-.58-.15c-1.33-.78-3.22-3-.94-6.11l0,0c.93-1.14,1.08-2.08.43-2.56a.59.59,0,0,1,0-1,1.21,1.21,0,0,1,1.34,0c.62.47,1.85,1.81-.16,4.28a2.88,2.88,0,0,0-.55,3.18,3.13,3.13,0,0,0,1,1.12.59.59,0,0,1,.16,1A1.1,1.1,0,0,1,19,19.43Z" transform="translate(-0.23 -0.08)"/></g></svg>