<svg id="Capa_1" data-name="Capa 1" xmlns="http://www.w3.org/2000/svg" viewBox="0 0 179.16 179.16"><defs><style>.cls-1{fill:#fff;}</style></defs><path class="cls-1" d="M231.08,138.81c-2.28-8.93-7.74-13.18-17-13.18H128.75q-30.18,0-60.35,0c-9.63,0-16.52,7.14-16.24,16.72A26.34,26.34,0,0,0,69,165.85c1.35.5,2.74.88,4.17,1.34v2q0,17.58,0,35.16c0,15.5,11.46,27,27,27h83.26c15.5,0,27-11.46,27-26.94q0-17.66,0-35.33v-1.91l1-.24,1-.29a25.89,25.89,0,0,0,17.35-16.2,59.07,59.07,0,0,0,1.65-6.21v-4.9A4.09,4.09,0,0,1,231.08,138.81Zm-158,17.38A28,28,0,0,1,70.54,155a15.41,15.41,0,0,1-7.88-13.15,5.22,5.22,0,0,1,5.42-5.71c1.62,0,3.24,0,5,0ZM210.4,156V136.2a58.22,58.22,0,0,1,6.06.05,4.89,4.89,0,0,1,4.26,4.26C221.48,147.57,216.08,154.59,210.4,156Z" transform="translate(-52.15 -52.15)"/><path class="cls-1" d="M77.8,115a8.33,8.33,0,0,0,4-.78q50.06-22.86,100.05-45.84c4.44-2,8.9-4,13.33-6.11a5.26,5.26,0,0,0,.09-9.65,6.41,6.41,0,0,1-.7-.45h-2.8a1.66,1.66,0,0,1-.39.32L162.8,65.56,153,70c-6.25-12-18.72-14.25-27.15-10.71a20.65,20.65,0,0,0-10.56,9.53c-3.23,6.09-3.27,12.36-.67,18.73-.6.3-1.05.56-1.52.77l-21.75,10c-4.87,2.23-9.75,4.44-14.61,6.7a5.28,5.28,0,0,0-3.22,5.49A5,5,0,0,0,77.8,115Z" transform="translate(-52.15 -52.15)"/><path class="cls-1" d="M197.68,80.11A5.34,5.34,0,0,0,192.16,75a30.83,30.83,0,0,0-3.31.3c-8.77,1-14,5.68-15.83,14.09a49.83,49.83,0,0,0-.76,6.58c-.48,6.14-2.68,8.33-8.85,8.7h-.35c-3.41.17-5.68,2.38-5.58,5.43s2.55,5.14,6.46,5c.57-.07,1.67-.18,2.77-.33,9-1.28,14.14-6.23,15.61-15.15.34-2.06.43-4.16.65-6.25.57-5.32,2.06-6.91,7.29-7.71.74-.12,1.5-.19,2.25-.24A5.33,5.33,0,0,0,197.68,80.11Z" transform="translate(-52.15 -52.15)"/><path class="cls-1" d="M194.5,104.63c-3.38.17-5.66,2.43-5.52,5.49s2.59,5.09,6.51,5c.58-.07,1.68-.18,2.77-.34,9-1.3,14.08-6.22,15.56-15.19.36-2.18.43-4.4.69-6.6.56-4.85,2.18-6.54,7-7.27.86-.13,1.73-.22,2.6-.29A5.24,5.24,0,1,0,223.77,75a29,29,0,0,0-3.47.3c-8.75,1.07-13.91,5.59-15.75,14a46.72,46.72,0,0,0-.79,6.58c-.47,6.28-2.64,8.47-8.91,8.82Z" transform="translate(-52.15 -52.15)"/></svg>