<svg id="Capa_3" data-name="Capa 3" xmlns="http://www.w3.org/2000/svg" viewBox="0 0 343.63 343.61"><defs><style>.cls-1{fill:#d12609;}.cls-2{fill:#fff;}</style></defs><path class="cls-1" d="M1131.34,434.29c-.07-37.2-28.08-65.18-65.24-65.24q-106.48-.18-213,0c-37.15.06-65.19,28.09-65.25,65.23q-.17,106.49.13,213a69.72,69.72,0,0,0,3.64,22c9.24,26.83,32.79,43.15,61.48,43.24,35.32.11,70.65,0,106,0,35.66,0,71.32.1,107,0,37.18-.14,65.17-28.07,65.24-65.26Q1131.54,540.77,1131.34,434.29Z" transform="translate(-787.8 -368.96)"/><path class="cls-2" d="M842.9,519.14c1.72-4.19,4.89-5.57,9.34-5.57q74,.13,148.07.06c6.83,0,9.45,2.75,9.11,9.53-1.48,29.42-22.68,52.72-51.76,56.79a61.31,61.31,0,0,1-8.24.54c-15.51,0-31,.11-46.52,0-29-.19-52.78-19.6-58.81-47.82-.45-2.14-.8-4.3-1.19-6.45Z" transform="translate(-787.8 -368.96)"/><path class="cls-2" d="M955.64,635.87h-21.8c0,1.77,0,3.4,0,5-.17,4.5-3.26,7.55-7.45,7.43-4-.11-6.89-3.29-6.94-7.71,0-1.49,0-3,0-4.69H897.68c0,1.6,0,3.23,0,4.85-.09,4.33-3.1,7.5-7.12,7.55s-7.15-3-7.35-7.33c-.07-1.64,0-3.29,0-5.28h-2.71c-7.56,0-15.12,0-22.67-.05a7,7,0,0,1-6.89-6,7.11,7.11,0,0,1,4.82-8,9.57,9.57,0,0,1,2.78-.38q68.13,0,136.28,0c4.44,0,7.72,3.14,7.68,7.22s-3.18,7.08-7.55,7.12c-7.32.06-14.65,0-22,0H970c0,1.78,0,3.39,0,5-.06,4.37-3,7.53-7,7.6s-7.21-3-7.35-7.53C955.6,639.24,955.64,637.68,955.64,635.87Z" transform="translate(-787.8 -368.96)"/><path class="cls-2" d="M1007,555.38c1.76-4.65,3.39-9.13,5.22-13.52.22-.53,1.53-.85,2.34-.86,13.69,0,27.37,0,41.06,0,4.41,0,8.81-.07,13.22,0s7.48,3.18,7.51,7.18-3.21,7.28-7.64,7.28q-30.33.06-60.65,0C1007.74,555.46,1007.43,555.42,1007,555.38Z" transform="translate(-787.8 -368.96)"/><path class="cls-2" d="M944.31,613.05H908.87a35.06,35.06,0,0,1,.89-4.1c3-8.69,8.77-15.53,15.24-21.82a3.18,3.18,0,0,1,3.07-.17c7.28,7.16,13.95,14.76,16.23,25.15A5.41,5.41,0,0,1,944.31,613.05Z" transform="translate(-787.8 -368.96)"/><path class="cls-2" d="M894.56,613H872.8c1.12-3,1.93-5.9,3.21-8.54,3.16-6.51,7.83-11.93,12.87-17,1.32-1.35,2.71-1.59,4.08-.13,2.2,2.35,4.38,4.72,6.48,7.17a2.06,2.06,0,0,1,.38,1.82A43.05,43.05,0,0,0,894.56,613Z" transform="translate(-787.8 -368.96)"/><path class="cls-2" d="M958.71,613a43.61,43.61,0,0,0-5.17-16.56,2.45,2.45,0,0,1,.23-2.2c2-2.36,4-4.61,6.12-6.85,1.11-1.2,2.45-1.54,3.72-.29,6.43,6.33,12.12,13.19,15.2,21.85a16.49,16.49,0,0,1,.64,2.51,9.71,9.71,0,0,1,0,1.54Z" transform="translate(-787.8 -368.96)"/><path class="cls-2" d="M882.83,502.46a9.77,9.77,0,0,1-4-.82c-9.13-4.2-22.23-16.55-6.49-33.24l.13-.13c6.41-6.21,7.51-11.29,3-13.94-2.54-1.5-2.54-3.92,0-5.42a10,10,0,0,1,9.19,0c4.29,2.53,12.77,9.86-1,23.27-6,6.34-7.25,12.17-3.86,17.34a19.85,19.85,0,0,0,7.1,6.11c2.83,1.3,3.31,3.7,1.1,5.36A8.71,8.71,0,0,1,882.83,502.46Z" transform="translate(-787.8 -368.96)"/><path class="cls-2" d="M917.08,502.46a8.14,8.14,0,0,1-4-1c-9.12-5.33-22.23-21-6.49-42.12l.13-.17c6.42-7.86,7.52-14.3,3-17.66a4,4,0,0,1,0-6.86,8.16,8.16,0,0,1,9.19,0c4.29,3.2,12.77,12.49-1,29.48-6,8-7.25,15.42-3.86,22a21.47,21.47,0,0,0,7.1,7.73c2.83,1.65,3.31,4.69,1.1,6.8A7.48,7.48,0,0,1,917.08,502.46Z" transform="translate(-787.8 -368.96)"/></svg>