<svg xmlns="http://www.w3.org/2000/svg" viewBox="0 0 49.8 49.8"><defs><style>.cls-1{fill:#fff;}.cls-2{fill:#d12609;}</style></defs><g id="Capa_2" data-name="Capa 2"><path class="cls-1" d="M45.25,11.68A7.49,7.49,0,0,0,37.61,4q-12.48,0-25,0A7.49,7.49,0,0,0,5,11.68q0,12.48,0,25a8,8,0,0,0,.43,2.58,7.39,7.39,0,0,0,7.2,5.07H25.07c4.18,0,8.36,0,12.54,0a7.49,7.49,0,0,0,7.64-7.65Q45.28,24.16,45.25,11.68Z" transform="translate(-0.23 -0.08)"/></g><g id="Capa_3" data-name="Capa 3"><path class="cls-2" d="M50,9.55A9.27,9.27,0,0,0,40.56.09Q25.13.06,9.69.09A9.27,9.27,0,0,0,.24,9.55q0,15.42,0,30.86A10.15,10.15,0,0,0,.78,43.6a9.17,9.17,0,0,0,8.91,6.27c5.12,0,10.24,0,15.36,0s10.34,0,15.51,0A9.27,9.27,0,0,0,50,40.41Q50,25,50,9.55Z" transform="translate(-0.23 -0.08)"/><path class="cls-1" d="M39,15.94c-.23.82-.46,1.64-.68,2.46l-2.51,9.47a1.42,1.42,0,0,1,0,.16H19.29a15.15,15.15,0,0,0-1.7.21c-.12-.43-.26-.92-.39-1.41-1.26-4.69-2.53-9.38-3.78-14.08a.39.39,0,0,0-.46-.35h-5a.94.94,0,0,1-1-1.3.92.92,0,0,1,.92-.58h6a1,1,0,0,1,1.07.8l.9,3.13c0,.09.06.17.09.28h.41c7.12,0,14.25,0,21.37,0a1.23,1.23,0,0,1,1.27.7Z" transform="translate(-0.23 -0.08)"/><path class="cls-1" d="M31.34,35.57H22a2.94,2.94,0,0,1-.3,2.5,2.8,2.8,0,0,1-1.41,1.15,2.87,2.87,0,0,1-3.18-4.57,9,9,0,0,1-.54-1.55,2.77,2.77,0,0,1,2.84-3.18c3.89,0,7.77,0,11.66,0,1.41,0,2.82,0,4.23,0a.94.94,0,0,1,.93,1.3.91.91,0,0,1-.79.58h-16a1,1,0,0,0-1,.62.94.94,0,0,0,.81,1.25H34A2.84,2.84,0,0,1,36.89,36a2.72,2.72,0,0,1-1.11,2.84,2.68,2.68,0,0,1-3,.24,2.71,2.71,0,0,1-1.54-2.63A6.68,6.68,0,0,1,31.34,35.57Z" transform="translate(-0.23 -0.08)"/></g></svg>