<svg xmlns="http://www.w3.org/2000/svg" viewBox="0 0 343.63 343.61"><defs><style>.cls-1{fill:#fff;}.cls-2{fill:#d12609;}</style></defs><g id="Capa_2" data-name="Capa 2"><path class="cls-1" d="M1098.5,449c0-30.08-22.71-52.71-52.76-52.76q-86.13-.13-172.25,0c-30,.05-52.72,22.72-52.77,52.76q-.13,86.13.1,172.25a56.36,56.36,0,0,0,2.95,17.81c7.47,21.7,26.52,34.9,49.72,35,28.57.09,57.14,0,85.72,0,28.84,0,57.68.09,86.52,0,30.07-.12,52.71-22.7,52.77-52.78Q1098.67,535.14,1098.5,449Z" transform="translate(-787.8 -368.96)"/></g><g id="Capa_3" data-name="Capa 3"><path class="cls-2" d="M1131.34,434.29c-.07-37.2-28.08-65.18-65.24-65.24q-106.48-.18-213,0c-37.15.06-65.19,28.09-65.25,65.23q-.17,106.49.13,213a69.72,69.72,0,0,0,3.64,22c9.24,26.83,32.79,43.15,61.48,43.24,35.32.11,70.65,0,106,0,35.66,0,71.32.1,107,0,37.18-.14,65.17-28.07,65.24-65.26Q1131.54,540.77,1131.34,434.29Z" transform="translate(-787.8 -368.96)"/><path class="cls-1" d="M1055.43,478.4c-1.57,5.66-3.2,11.32-4.71,17q-8.68,32.64-17.3,65.31c-.09.34-.2.68-.33,1.15h-3.66c-36.68,0-73.37-.05-110.06.06-3.83,0-7.66.93-11.78,1.46-.83-3-1.76-6.37-2.67-9.75q-13.06-48.57-26.08-97.15c-.49-1.84-1.21-2.46-3.19-2.44-11.53.11-23.06.08-34.59,0-5.22,0-8.55-4.59-6.58-9a6.39,6.39,0,0,1,6.37-3.95c9.66,0,19.32,0,29,0,4.11,0,8.22,0,12.32,0s6.16,1.49,7.36,5.57c2.1,7.18,4.16,14.37,6.24,21.56.18.61.39,1.22.62,2h2.83q73.74,0,147.47-.06c4,0,7,1.08,8.76,4.78Z" transform="translate(-787.8 -368.96)"/><path class="cls-1" d="M1002.49,613.85H937.71c1.73,6.11,1.35,11.9-2.07,17.27a19.44,19.44,0,0,1-9.72,7.9A19.82,19.82,0,0,1,904,607.51c-1.36-3.76-3.29-7.14-3.75-10.71-1.57-12.14,7.3-21.89,19.6-21.91,26.81-.06,53.63,0,80.44,0,9.73,0,19.46,0,29.19,0,5.07,0,8.31,4.58,6.43,9a6.31,6.31,0,0,1-5.48,4,24.83,24.83,0,0,1-2.59,0H920.35c-3.65,0-6,1.44-7,4.26a6.46,6.46,0,0,0,5.64,8.59,24.88,24.88,0,0,0,2.59,0q49.63,0,99.26,0c10.15,0,18.25,6.44,20,16,1.45,8-1.11,14.74-7.64,19.6s-13.63,5.38-20.77,1.66-10.79-10-10.64-18.14A56.68,56.68,0,0,1,1002.49,613.85Z" transform="translate(-787.8 -368.96)"/></g></svg>