<svg id="Capa_1" data-name="Capa 1" xmlns="http://www.w3.org/2000/svg" viewBox="0 0 800 800"><defs><style>.cls-1{fill:#d12609;}.cls-2{fill:#fff;}</style></defs><rect class="cls-1" width="800" height="800"/><path class="cls-2" d="M478.22,209.78c31.87,4.7,62.42,7.71,92.28,14,40.08,8.42,78.38,22.84,110.47,49.08,22.42,18.34,35.63,43.5,38.49,72.41,2.24,22.55-10.06,35.69-32.62,38.83a119.69,119.69,0,0,1-16.41.74c-48.41.06-96.82-.09-145.22.23-4.64,0-9.73,2.06-13.79,4.51-7.19,4.34-15.89,4.13-21.19-1.7a15.88,15.88,0,0,1-.16-20.43c5.2-6,13.91-6.41,21.12-2,3.82,2.32,8.54,4.43,12.88,4.46,49,.31,98.1.2,147.15.19,1.94,0,3.87,0,5.81-.06,24.42-.81,33.48-13,25.84-36.27C699,322,695,309.46,680.21,306.26a6,6,0,0,1-2.34-1.67c-42.8-39.42-95.62-55.15-151.44-62.31-62-7.95-123.78-5.53-184.31,11.4-34.21,9.57-64.75,25.64-91.92,49.68C239,313.22,229.32,322.23,224.38,336c-7.36,20.49.05,33.17,21.59,33.55,48.72.87,97.45.49,146.18.33,2.73,0,5.64-2.38,8.14-4.12,7.07-4.89,15.72-4.44,21.12,1.37a15.47,15.47,0,0,1-.21,21.07c-5.49,5.67-14,5.7-21.21,1-3.47-2.24-7.92-4.15-11.94-4.18-44.21-.29-88.42-.08-132.63-.29a98.9,98.9,0,0,1-23-2.39C214.25,377.85,204.67,363,207,344.5a21.94,21.94,0,0,1,1.06-5.7c11.57-27.92,21.12-56.68,48.7-74.71,39.8-26,83.5-40.22,130.08-46.45,21.06-2.82,42.32-4.17,64.1-6.24,2.2-7.46.42-13.7-5.54-19.5-22.15-21.56-49.7-26.55-78.2-21.89-68.13,11.13-131.31,35.43-180.58,85.42-49.75,50.48-70,113-61.06,183.5,5.75,45.41,36.91,78.62,78.81,87.73a66.85,66.85,0,0,0,12.46,1.45,71.46,71.46,0,0,1,40.61,13.55c17.52,12.38,30,12.05,47.94-.11,25.78-17.51,50.76-17.6,76.45-.28,18.86,12.71,30.55,12.65,49.64-.28,24.76-16.78,50.16-16.85,74.84-.22,19.66,13.26,31.08,13.3,50.43.18,24.7-16.75,50-16.8,74.85-.14,19.69,13.23,31,13.26,50.45.13,24.2-16.34,43.65-16.81,72.37-1.26,1.78-2.79,3.54-5.69,5.42-8.52A51.08,51.08,0,0,1,819.5,511.3c22,7.79,35.64,29.56,33.43,53.23-2.1,22.46-20.36,41.3-43.18,44.57A50.82,50.82,0,0,1,755.14,578c-9.14-22.42-42-29.52-56.46-17a61.91,61.91,0,0,1-45.57,15.41c-12.72-.74-23.7-5.24-34-12.33-19.25-13.24-30.49-13.16-49.57-.17-25.25,17.19-50.37,17.22-75.71.08-19.35-13.08-30.38-13.09-49.6-.05-25.31,17.17-50.3,17.18-75.71,0-19.32-13.05-30.29-13-49.59,0-25.32,17.15-50.26,17.3-75.64-.22-8.83-6.1-18.08-8.49-28.75-9.55-49.53-4.88-85-30.52-104.79-76.08-17.89-41.17-15.7-84-5.18-126.41,18.38-74,61.7-128.94,129.83-163.66,43-21.91,87.22-40.58,136.08-44.63,35.24-2.91,67.07,4.84,93.74,30C475.41,184,478,196.83,478.22,209.78ZM802.05,527.35c-17.71.13-32.07,14.71-31.71,32.2A32.37,32.37,0,0,0,802.15,591a31.94,31.94,0,0,0,32-32A31.4,31.4,0,0,0,802.05,527.35Z" transform="translate(-74.8 -10.68)"/><path class="cls-2" d="M463.94,585.28q99.2,0,198.39.06a143.67,143.67,0,0,1,22.14,1.49c17.83,2.83,30.78,12.15,34.34,30.61s-2.12,35-18.09,44.66c-11.77,7.11-25.94,13.41-39.33,14.08-44.09,2.22-88.32,2.05-132.49,2.17-76.45.21-152.9.28-229.35-.36a275.37,275.37,0,0,1-52.71-5.6c-23-4.73-37.82-21.77-39.78-42-2.34-24.09,16.34-43.49,44-44.78,16.1-.75,32.25-.33,48.38-.34Q381.69,585.25,463.94,585.28Z" transform="translate(-74.8 -10.68)"/><path class="cls-2" d="M514.62,465.65c24.59-7.11,46.55-21.95,74.18-20.31,27.33,1.64,54.85-.2,82.23,1a68,68,0,0,1,29.28,8.25c21,11.75,21.85,36.42,2.82,51.06-11.36,8.75-24.53,10.76-38.35,10.75q-102.12-.06-204.22,0c-66.46,0-132.93.36-199.38-.37-11.83-.13-24.3-3.23-35.24-7.86-11.84-5-19-15.51-17.8-29.48,1.13-13.32,9.19-22,21-26.6,8-3.1,16.74-5.41,25.24-5.73,23.2-.88,46.44-.54,69.67-.59,2.2,0,4.79,0,6.55,1.1,10,6.13,19.85,12.59,29.13,20.72-3,.15-6.09.42-9.13.42-28.71,0-57.43-.09-86.14.11-6.08,0-12.67,0-18,2.27-4.21,1.79-9.71,7.29-9.53,10.89.19,3.84,5.78,8.73,10.12,10.68,4.72,2.11,10.73,1.77,16.18,1.78q141.3.12,282.61.05c39.36,0,78.72.18,118.08-.36a44.52,44.52,0,0,0,19.8-5.58c5.86-3.18,6.28-10,.18-13.25-6.48-3.46-14.24-6.2-21.48-6.29-46.12-.55-92.26-.28-138.4-.28h-9C514.83,467.22,514.72,466.44,514.62,465.65Z" transform="translate(-74.8 -10.68)"/><path class="cls-2" d="M627.91,428.9c-38.43-7-83.46,5.21-127.49,24.7-21.77,9.64-44.61,16.85-66.73,25.75-9.3,3.74-17,3-25.41-2.55q-33.37-22.29-67.49-43.46a28.89,28.89,0,0,0-14.27-4.22c-32.57-.36-65.15-.19-97.72-.19a64.2,64.2,0,0,1-7.73-.13c-7.09-.87-12.82-4.09-12.63-11.93.17-7.24,5.56-10.75,12.34-11.13,8.36-.47,16.76-.27,25.14-.28,29.35,0,58.71-.39,88,.28a43.59,43.59,0,0,1,20.59,6.15c21.24,12.83,42,26.43,62.69,40.19,5.2,3.46,9.45,3.67,15.12,1.49Q491,431,549.81,409.05a56,56,0,0,1,18.74-3.44c44.18-.29,88.37-.16,132.55-.15,2.26,0,4.53-.08,6.77.09,7.42.57,13.81,3.18,13.79,11.71s-6.46,11.48-13.86,11.55C684.58,429,661.36,428.9,627.91,428.9Z" transform="translate(-74.8 -10.68)"/><path class="cls-2" d="M423,258.26c4.52,0,9-.19,13.54,0,8.56.45,14.09,5.58,13.71,13.05-.43,8.61-5.71,11.84-13.93,12.9-26.44,3.42-53.26,5.48-79.08,11.64-31.11,7.43-58.82,22.65-80.31,47.49-5.95,6.87-13.83,7.48-19.55,2.34s-6-12.77,0-19.79c23-26.73,52.52-43.89,85.9-53.32,25.9-7.32,52.73-11.33,79.14-16.8Z" transform="translate(-74.8 -10.68)"/><path class="cls-2" d="M802.09,577.88a18.84,18.84,0,0,1-18.79-19.16,19.07,19.07,0,1,1,38.14.53A18.91,18.91,0,0,1,802.09,577.88Z" transform="translate(-74.8 -10.68)"/></svg>