<svg id="Capa_4" data-name="Capa 4" xmlns="http://www.w3.org/2000/svg" xmlns:xlink="http://www.w3.org/1999/xlink" viewBox="0 0 896.5 896.5"><defs><style>.cls-1{fill:none;stroke-miterlimit:10;stroke-width:10px;stroke:url(#Degradado_sin_nombre_2);}.cls-2{fill:#fff;}.cls-3{fill:url(#Degradado_sin_nombre_2-2);}</style><linearGradient id="Degradado_sin_nombre_2" x1="23.01" y1="590.39" x2="873.49" y2="306.11" gradientUnits="userSpaceOnUse"><stop offset="0" stop-color="red"/><stop offset="0.16" stop-color="#ef810a"/><stop offset="0.35" stop-color="#f4c500"/><stop offset="0.55" stop-color="#80ed18"/><stop offset="0.73" stop-color="#10dddd"/><stop offset="0.87" stop-color="#8b13ea"/><stop offset="1" stop-color="#e8157e"/></linearGradient><linearGradient id="Degradado_sin_nombre_2-2" x1="348.15" y1="514.09" x2="755.02" y2="378.09" xlink:href="#Degradado_sin_nombre_2"/></defs><circle class="cls-1" cx="448.25" cy="448.25" r="443.25"/><path class="cls-2" d="M298.36,897.88C254.54,868.94,221,834.55,192.66,795c-2.19-3-2.69-10-.7-13,44.66-65.29,91-129.16,165.53-164.2,29-13.62,52.31-8.59,72.92,15,8,9.15,1.12,12.34-6.85,13.78-19.71,3.58-39.65,6.11-59.14,10.59-6.17,1.42-11.21,7.7-16.77,11.76,6.46,1.34,13.48,5.06,19.28,3.68C449.45,653,529.69,663,608.69,690.17c22,7.56,22.16,8.13,30.23-13.31,11.84-31.47,22.94-63.22,34.82-94.68,10.74-28.42,31.24-44.45,58-44.28-1.63,6.94-2.51,13.59-4.74,19.77-20.6,57.19-41.91,114.13-61.95,171.52-6.43,18.43-18.58,27.4-36.71,29.75-45.15,5.84-90.35,11.33-135.53,17q-91.21,11.5-182.44,23.12c-3.22.41-6.85.46-9.48,2-3.3,2-5.77,5.36-8.6,8.13,3.24,2.3,6.23,6,9.77,6.67,25.32,4.55,26,5.39,16.59,30C312.35,862.48,305.77,879,298.36,897.88Z" transform="translate(-91.75 -91.75)"/><path class="cls-2" d="M812.45,487c-2.11,9.5-2.69,14.72-4.42,19.54C789.24,559,769.65,611.29,751.61,664.08c-8.71,25.51-28.94,38.24-49.72,51.07-2.29,1.42-6,.5-9.08.67-.24-4.57-1.88-9.61-.51-13.63,7.87-23.06,16.48-45.88,24.79-68.8q17.7-48.87,35.32-97.77c6.47-18,16.79-33,34.42-41.33C793.65,491.05,801.51,490,812.45,487Z" transform="translate(-91.75 -91.75)"/><path class="cls-2" d="M883.85,511.38C852.24,549.65,822,586.2,788.91,626.32c-1.27-8.13-2.6-10.89-1.88-12.91,9.86-27.52,18.85-55.43,30.44-82.21C827.11,508.93,856.4,500,883.85,511.38Z" transform="translate(-91.75 -91.75)"/><path class="cls-2" d="M470.25,378.46l-48.69-16V349.59l48.69-15.48v12.67l-34.61,9.15,34.61,9.86Z" transform="translate(-91.75 -91.75)"/><path class="cls-2" d="M471.28,429.14l33-98.79H518.8l-33,98.79Z" transform="translate(-91.75 -91.75)"/><path class="cls-2" d="M516.06,430.63V418l34.61-9.86L516.06,399V386.28l48.69,15.48v12.91Z" transform="translate(-91.75 -91.75)"/><path class="cls-3" d="M583,223c5,.4,10.15.13,15,1.3,121.76,29.83,192.63,158.27,152.92,276.35-3.85,11.46-9,17.83-22.19,19.36-33.41,3.86-58.26,21.23-69,53.87-19.54,59.6-39.62,72.77-114,73.18-95.33.52-173.08-59.28-203.15-149.75-2.91-8.76-4-18.14-3.51-29.48,50.64,62.59,113.54,88.58,191.64,71.06,39.14-8.78,70.3-31.43,94-63.18,29.69-39.77,39.71-85,31.05-133.94-8.54-48.3-34.76-85.59-75.25-113.64Z" transform="translate(-91.75 -91.75)"/></svg>