<?xml version="1.0" encoding="utf-8"?>
<!-- Generator: Adobe Illustrator 25.0.1, SVG Export Plug-In . SVG Version: 6.00 Build 0)  -->
<svg version="1.1" id="Capa_4" xmlns="http://www.w3.org/2000/svg" xmlns:xlink="http://www.w3.org/1999/xlink" x="0px" y="0px"
	 viewBox="0 0 896.5 896.5" style="enable-background:new 0 0 896.5 896.5;" xml:space="preserve">
<style type="text/css">
	.st0{fill:#FFFFFF;}
</style>
<g>
	<path class="st0" d="M640,446.2c-26.8-0.2-47.3,15.9-58,44.3c-11.9,31.5-23,63.2-34.8,94.7c-8.1,21.4-8.2,20.9-30.2,13.3
		c-79-27.2-159.2-37.2-241.8-17.6c-5.8,1.4-12.8-2.3-19.3-3.7c5.6-4.1,10.6-10.3,16.8-11.8c19.5-4.5,39.4-7,59.1-10.6
		c8-1.4,14.8-4.6,6.8-13.8c-20.6-23.6-43.9-28.6-72.9-15c-74.5,35-120.9,98.9-165.5,164.2c-2,3-1.5,10,0.7,13
		c28.3,39.5,61.9,73.9,105.7,102.9c7.4-18.9,14-35.4,20.3-52c9.4-24.6,8.7-25.5-16.6-30c-3.5-0.7-6.5-4.4-9.8-6.7
		c2.8-2.8,5.3-6.1,8.6-8.1c2.6-1.5,6.3-1.6,9.5-2c60.8-7.7,121.6-15.5,182.4-23.1c45.2-5.7,90.4-11.2,135.5-17
		c18.1-2.3,30.3-11.3,36.7-29.8c20-57.4,41.4-114.3,62-171.5C637.5,459.7,638.4,453.1,640,446.2z"/>
	<path class="st0" d="M720.7,395.2c-10.9,3-18.8,4-25.6,7.3c-17.6,8.3-28,23.3-34.4,41.3c-11.7,32.6-23.5,65.2-35.3,97.8
		c-8.3,22.9-16.9,45.7-24.8,68.8c-1.4,4,0.3,9.1,0.5,13.6c3.1-0.2,6.8,0.8,9.1-0.7c20.8-12.8,41-25.6,49.7-51.1
		c18-52.8,37.6-105.1,56.4-157.5C718,410,718.6,404.8,720.7,395.2z"/>
	<path class="st0" d="M725.7,439.5c-11.6,26.8-20.6,54.7-30.4,82.2c-0.7,2,0.6,4.8,1.9,12.9c33.1-40.1,63.3-76.7,94.9-114.9
		C764.7,408.2,735.4,417.2,725.7,439.5z"/>
	<polygon class="st0" points="378.5,274 343.9,264.2 378.5,255 378.5,242.4 329.8,257.8 329.8,270.7 378.5,286.7 	"/>
	<polygon class="st0" points="427,238.6 412.5,238.6 379.5,337.4 394,337.4 	"/>
	<polygon class="st0" points="424.3,307.2 458.9,316.4 424.3,326.2 424.3,338.9 473,322.9 473,310 424.3,294.5 	"/>
	<path class="st0" d="M861.3,273.8c-22.6-53.4-54.9-101.3-96.1-142.5C724,90.1,676.1,57.8,622.7,35.2C567.5,11.9,508.8,0,448.2,0
		C387.7,0,329,11.9,273.8,35.2c-53.4,22.6-101.3,54.9-142.5,96.1c-41.2,41.2-73.5,89.1-96.1,142.5C11.9,329,0,387.7,0,448.2
		c0,60.5,11.9,119.2,35.2,174.5c22.6,53.4,54.9,101.3,96.1,142.5c41.2,41.2,89.1,73.5,142.5,96.1c55.3,23.4,114,35.2,174.5,35.2
		c60.5,0,119.2-11.9,174.5-35.2c53.4-22.6,101.3-54.9,142.5-96.1c41.2-41.2,73.5-89.1,96.1-142.5c23.4-55.3,35.2-114,35.2-174.5
		C896.5,387.7,884.6,329,861.3,273.8z M448.2,886.5C206.6,886.5,10,689.9,10,448.2C10,206.6,206.6,10,448.2,10
		c241.7,0,438.2,196.6,438.2,438.2C886.5,689.9,689.9,886.5,448.2,886.5z"/>
	<path class="st0" d="M454,555.3c74.4-0.4,94.5-13.6,114-73.2c10.7-32.6,35.6-50,69-53.9c13.2-1.5,18.3-7.9,22.2-19.4
		c39.7-118.1-31.2-246.5-152.9-276.4c-4.8-1.2-10-0.9-15-1.3l-2.5,5.1c40.5,28,66.7,65.3,75.2,113.6c8.7,48.9-1.4,94.2-31,133.9
		c-23.7,31.8-54.9,54.4-94,63.2c-78.1,17.5-141-8.5-191.6-71.1c-0.5,11.3,0.6,20.7,3.5,29.5C280.9,496,358.6,555.8,454,555.3z"/>
</g>
</svg>
