<svg xmlns="http://www.w3.org/2000/svg" viewBox="0 0 49.8 49.8"><defs><style>.cls-1,.cls-3{fill:#fff;}.cls-2{fill:#d12609;}.cls-3{stroke:#d12609;stroke-miterlimit:10;stroke-width:0.5px;}</style></defs><g id="Capa_2" data-name="Capa 2"><path class="cls-1" d="M45.25,11.68A7.49,7.49,0,0,0,37.61,4q-12.48,0-25,0A7.49,7.49,0,0,0,5,11.68q0,12.48,0,25a8,8,0,0,0,.43,2.58,7.39,7.39,0,0,0,7.2,5.07H25.07c4.18,0,8.36,0,12.54,0a7.49,7.49,0,0,0,7.64-7.65Q45.28,24.16,45.25,11.68Z" transform="translate(-0.23 -0.08)"/></g><g id="Capa_3" data-name="Capa 3"><path class="cls-2" d="M50,9.55A9.27,9.27,0,0,0,40.56.09Q25.13.06,9.69.09A9.27,9.27,0,0,0,.24,9.55q0,15.42,0,30.86A10.15,10.15,0,0,0,.78,43.6a9.17,9.17,0,0,0,8.91,6.27c5.12,0,10.24,0,15.36,0s10.34,0,15.51,0A9.27,9.27,0,0,0,50,40.41Q50,25,50,9.55Z" transform="translate(-0.23 -0.08)"/><path class="cls-3" d="M42.74,33.87c-.07.35-.13.7-.23,1a5.51,5.51,0,1,1,.17-2.39,1.27,1.27,0,0,0,.06.18Zm-6.06,0-1.21-1.2a.54.54,0,0,0-.82,0,.54.54,0,0,0,.05.82c.51.52,1,1,1.55,1.55a.55.55,0,0,0,.88,0l.66-.65c.66-.67,1.34-1.32,2-2a.77.77,0,0,0,.16-.61.54.54,0,0,0-.4-.34.83.83,0,0,0-.57.23C38.2,32.38,37.46,33.14,36.68,33.91Z" transform="translate(-0.23 -0.08)"/><path class="cls-3" d="M7.53,17.7,11.75,20a.49.49,0,0,1,.16.36c0,1.39,0,2.77,0,4.16a.74.74,0,0,0,.43.74c1.38.73,2.75,1.48,4.12,2.22.58.31,1,.07,1-.59V23.05a3,3,0,0,1,.3.14c1.28.69,2.56,1.38,3.85,2.06a.4.4,0,0,1,.26.39q0,7.5,0,15s0,.07,0,.14l-.28-.13L7.92,33.32a.67.67,0,0,1-.41-.65V17.91C7.51,17.86,7.52,17.8,7.53,17.7Z" transform="translate(-0.23 -0.08)"/><path class="cls-3" d="M37.22,17.71v9a6.67,6.67,0,0,0-5.91,9.6L22.94,40.8c0-.15,0-.26,0-.37q0-7.35,0-14.69a.47.47,0,0,1,.26-.49q6.87-3.67,13.73-7.38Z" transform="translate(-0.23 -0.08)"/><path class="cls-3" d="M26.76,11.4c-.78.43-1.53.84-2.29,1.24Q18.62,15.79,12.78,19a.56.56,0,0,1-.6,0c-1.27-.7-2.56-1.38-3.84-2.07l-.24-.14.29-.19q6.72-3.61,13.43-7.23a1,1,0,0,1,1.11,0c1.16.66,2.33,1.27,3.5,1.9Z" transform="translate(-0.23 -0.08)"/><path class="cls-3" d="M36.69,16.73l-2.63,1.42-11.4,6.14a.52.52,0,0,1-.56,0c-1.23-.68-2.48-1.35-3.72-2l-.32-.19,2.85-1.54,11.16-6a.52.52,0,0,1,.56,0Z" transform="translate(-0.23 -0.08)"/><path class="cls-3" d="M31.15,13.77c-.12.07-.21.14-.31.19L17.17,21.33a.53.53,0,0,1-.59,0c-1-.53-1.94-1-2.95-1.59l2.06-1.11,12-6.44a.55.55,0,0,1,.59,0c.88.49,1.78,1,2.66,1.44Z" transform="translate(-0.23 -0.08)"/><path class="cls-3" d="M13.06,20.67l3.08,1.66c.07,0,.17.14.17.22,0,1.17,0,2.35,0,3.58l-1.67-.9c-.48-.26-1-.5-1.42-.77a.46.46,0,0,1-.2-.3c0-1.11,0-2.22,0-3.33A.53.53,0,0,1,13.06,20.67Z" transform="translate(-0.23 -0.08)"/></g></svg>