<svg xmlns="http://www.w3.org/2000/svg" viewBox="0 0 343.63 343.61"><defs><style>.cls-1,.cls-3{fill:#fff;}.cls-2{fill:#d12609;}.cls-3{stroke:#d12609;stroke-miterlimit:10;stroke-width:3px;}</style></defs><g id="Capa_2" data-name="Capa 2"><path class="cls-1" d="M1098.5,449c0-30.08-22.71-52.71-52.76-52.76q-86.13-.13-172.25,0c-30,.05-52.72,22.72-52.77,52.76q-.13,86.13.1,172.25a56.36,56.36,0,0,0,2.95,17.81c7.47,21.7,26.52,34.9,49.72,35,28.57.09,57.14,0,85.72,0,28.84,0,57.68.09,86.52,0,30.07-.12,52.71-22.7,52.77-52.78Q1098.67,535.14,1098.5,449Z" transform="translate(-787.8 -368.96)"/></g><g id="Capa_3" data-name="Capa 3"><path class="cls-2" d="M1131.34,434.29c-.07-37.2-28.08-65.18-65.24-65.24q-106.48-.18-213,0c-37.15.06-65.19,28.09-65.25,65.23q-.17,106.49.13,213a69.72,69.72,0,0,0,3.64,22c9.24,26.83,32.79,43.15,61.48,43.24,35.32.11,70.65,0,106,0,35.66,0,71.32.1,107,0,37.18-.14,65.17-28.07,65.24-65.26Q1131.54,540.77,1131.34,434.29Z" transform="translate(-787.8 -368.96)"/><path class="cls-3" d="M1081.19,602.16c-.53,2.38-.93,4.79-1.62,7.12a38,38,0,0,1-74.28-13.65c1.37-19,17.18-34.51,36-35.21a38,38,0,0,1,39.47,32.37,8,8,0,0,0,.44,1.3Zm-41.85.28c-2.86-2.88-5.56-5.64-8.33-8.34-1.87-1.82-4.08-1.88-5.67-.28s-1.52,3.8.32,5.68c3.55,3.61,7.12,7.2,10.74,10.73,2,2,3.95,1.94,6,0,1.55-1.46,3-3,4.54-4.52,4.58-4.58,9.25-9.09,13.68-13.83a5.47,5.47,0,0,0,1.12-4.19,3.81,3.81,0,0,0-2.77-2.38,5.82,5.82,0,0,0-3.91,1.57C1049.84,591.88,1044.74,597.06,1039.34,602.44Z" transform="translate(-787.8 -368.96)"/><path class="cls-3" d="M838.18,490.53c10,5.36,19.56,10.5,29.11,15.77a3.27,3.27,0,0,1,1.12,2.46q.12,14.37,0,28.73a5.11,5.11,0,0,0,3,5.11c9.5,5,18.93,10.19,28.39,15.28,4,2.15,6.62.53,6.63-4,0-7.91,0-15.83,0-23.74v-2.65c.87.41,1.49.66,2.09,1,8.84,4.75,17.67,9.53,26.52,14.25a2.67,2.67,0,0,1,1.81,2.65q-.07,51.75,0,103.5c0,.24-.06.47-.12,1-.69-.32-1.31-.56-1.9-.87q-47-25.29-93.95-50.57a4.67,4.67,0,0,1-2.81-4.5q0-50.93,0-101.85C838.07,491.63,838.12,491.26,838.18,490.53Z" transform="translate(-787.8 -368.96)"/><path class="cls-3" d="M1043.09,490.64v61.92c-32.63.18-55.81,34.53-40.8,66.29L944.55,650c0-1.08-.11-1.83-.11-2.59q0-50.65,0-101.32c0-1.51.17-2.53,1.77-3.39q47.42-25.39,94.76-51C1041.55,491.38,1042.19,491.09,1043.09,490.64Z" transform="translate(-787.8 -368.96)"/><path class="cls-3" d="M970.92,447.11l-15.8,8.54q-40.36,21.74-80.73,43.51a3.73,3.73,0,0,1-4.09,0c-8.79-4.83-17.65-9.54-26.48-14.3-.48-.26-.94-.54-1.69-1,.8-.51,1.4-.94,2-1.29q46.32-24.93,92.62-49.91c2.73-1.48,4.93-1.59,7.68,0,8,4.51,16.11,8.75,24.17,13.1C969.32,446.15,970,446.56,970.92,447.11Z" transform="translate(-787.8 -368.96)"/><path class="cls-3" d="M1039.4,483.87l-18.13,9.78Q981.94,514.83,942.62,536a3.54,3.54,0,0,1-3.89,0c-8.51-4.68-17.08-9.26-25.63-13.88-.67-.36-1.3-.79-2.2-1.35l19.61-10.59q38.52-20.72,77-41.46a3.57,3.57,0,0,1,3.88,0C1020.54,473.75,1029.73,478.66,1039.4,483.87Z" transform="translate(-787.8 -368.96)"/><path class="cls-3" d="M1001.21,463.43c-.85.51-1.48.94-2.15,1.3q-47.17,25.41-94.34,50.85a3.72,3.72,0,0,1-4.1,0c-6.63-3.67-13.33-7.21-20.29-11,4.89-2.65,9.52-5.17,14.16-7.67q41.24-22.2,82.46-44.41a3.72,3.72,0,0,1,4.11-.07c6.08,3.38,12.24,6.61,18.36,9.91C1000,462.62,1000.46,463,1001.21,463.43Z" transform="translate(-787.8 -368.96)"/><path class="cls-3" d="M876.34,511.07c7.21,3.87,14.24,7.63,21.24,11.45.54.29,1.2,1,1.21,1.49.07,8.11.05,16.21.05,24.71l-11.52-6.21c-3.27-1.76-6.56-3.47-9.77-5.33a3,3,0,0,1-1.43-2c-.1-7.66-.07-15.33,0-23A4.8,4.8,0,0,1,876.34,511.07Z" transform="translate(-787.8 -368.96)"/></g></svg>