<svg id="Capa_1" data-name="Capa 1" xmlns="http://www.w3.org/2000/svg" viewBox="0 0 179.26 179.29"><defs><style>.cls-1{fill:#fff;}</style></defs><path class="cls-1" d="M231.32,141.8c-.15,49.48-40.33,89.62-89.65,89.57s-90-40.71-89.61-89.82C52.43,92,92.72,51.82,141.82,52.08,191.33,52.34,231.47,92.59,231.32,141.8ZM127.44,158.7l-18.12-18.6c-2.82-2.89-5.58-5.85-8.51-8.63a8.62,8.62,0,0,0-11.91-.08c-3.77,3.56-3.65,8.85.37,13q15.42,15.88,30.9,31.74c4.51,4.61,9.23,4.7,13.89.29l59.9-56.8a17.6,17.6,0,0,0,1.57-1.66,8.6,8.6,0,0,0-1.27-12.14c-3.62-3-8.3-2.52-12.22,1.19l-52.76,50C128.73,157.56,128.16,158.05,127.44,158.7Z" transform="translate(-52.06 -52.08)"/></svg>