<svg id="Capa_1" data-name="Capa 1" xmlns="http://www.w3.org/2000/svg" viewBox="0 0 179.11 179.11"><defs><style>.cls-1{fill:#fff;}</style></defs><path class="cls-1" d="M141.79,231.08a89.56,89.56,0,1,1,89.71-89.3A89.59,89.59,0,0,1,141.79,231.08Zm-8.12-113.71q0,12.12,0,24.23a8.48,8.48,0,0,0,3.39,7.21q16.44,12.39,33,24.71a7.6,7.6,0,0,0,6.67,1.34,7.89,7.89,0,0,0,6.17-6.29A8.1,8.1,0,0,0,179.5,160c-9.11-6.83-18.19-13.7-27.35-20.46a4.22,4.22,0,0,1-2-3.89q.12-20.92,0-41.85a11.66,11.66,0,0,0-.74-4.22,8.1,8.1,0,0,0-9.32-4.78,8.29,8.29,0,0,0-6.44,8.1C133.63,101.07,133.67,109.22,133.67,117.37Z" transform="translate(-52.38 -51.97)"/></svg>