<svg xmlns="http://www.w3.org/2000/svg" viewBox="0 0 49.8 49.8"><defs><style>.cls-1,.cls-3{fill:#fff;}.cls-2{fill:#d12609;}.cls-3{stroke:#fff;stroke-miterlimit:10;}</style></defs><g id="Capa_2" data-name="Capa 2"><path class="cls-1" d="M45.25,11.68A7.49,7.49,0,0,0,37.61,4q-12.48,0-25,0A7.49,7.49,0,0,0,5,11.68q0,12.48,0,25a8,8,0,0,0,.43,2.58,7.39,7.39,0,0,0,7.2,5.07H25.07c4.18,0,8.36,0,12.54,0a7.49,7.49,0,0,0,7.64-7.65Q45.28,24.16,45.25,11.68Z" transform="translate(-0.23 -0.08)"/></g><g id="Capa_3" data-name="Capa 3"><path class="cls-2" d="M50,9.55A9.27,9.27,0,0,0,40.56.09Q25.13.06,9.69.09A9.27,9.27,0,0,0,.24,9.55q0,15.42,0,30.86A10.15,10.15,0,0,0,.78,43.6a9.17,9.17,0,0,0,8.91,6.27c5.12,0,10.24,0,15.36,0s10.34,0,15.51,0A9.27,9.27,0,0,0,50,40.41Q50,25,50,9.55Z" transform="translate(-0.23 -0.08)"/><path class="cls-3" d="M11.33,16.48a1,1,0,0,1,1.09-.6c2.36,0,4.73,0,7.09,0a.48.48,0,0,0,.49-.27c.89-1.37,1.77-2.74,2.68-4.1a4.4,4.4,0,0,1,.61-.61H27l.1.07a.81.81,0,0,1-.35,1.55H24.21a.41.41,0,0,0-.4.2c-.66,1-1.34,2.07-2,3.16h6.57a.81.81,0,0,1,.11,1.62h-16a1,1,0,0,1-1.09-.6Z" transform="translate(-0.23 -0.08)"/><path class="cls-3" d="M28,19.57l-.14,2.15h-.69c-.94,0-1.9,0-2.84.06A6.66,6.66,0,0,0,18.53,27a7,7,0,0,0-.13,1.88,2.39,2.39,0,0,0,1.53,1.92,3.3,3.3,0,0,0,0,3.5l-.15.09A2.5,2.5,0,0,0,18.37,37a4.27,4.27,0,0,0,.78,2l-.27,0H14.33c-.64,0-.93-.29-1-.93-.17-2.83-.35-5.66-.52-8.48q-.23-3.81-.46-7.62c0-.81-.1-1.62-.15-2.45Z" transform="translate(-0.23 -0.08)"/><path class="cls-1" d="M29.43,29.3H21c-.7,0-1-.31-1-1a5.17,5.17,0,0,1,4.49-4.9c.25,0,.5,0,.75-.05h8.48a5.14,5.14,0,0,1,5.15,4.25,5.56,5.56,0,0,1,.08.81.82.82,0,0,1-.88.9H29.43Z" transform="translate(-0.23 -0.08)"/><path class="cls-1" d="M29.48,35.8H38a.87.87,0,0,1,1,1.11A2.43,2.43,0,0,1,36.45,39h-14A2.42,2.42,0,0,1,20,36.9a.86.86,0,0,1,1-1.1Z" transform="translate(-0.23 -0.08)"/><path class="cls-1" d="M29.44,30.92H36.2a1.61,1.61,0,0,1,1.46,2.35,1.57,1.57,0,0,1-1.52.89H22.67a1.59,1.59,0,0,1-1.52-1.09,1.62,1.62,0,0,1,.48-1.77,1.68,1.68,0,0,1,1.12-.39Z" transform="translate(-0.23 -0.08)"/></g></svg>