<svg xmlns="http://www.w3.org/2000/svg" viewBox="0 0 343.63 343.61"><defs><style>.cls-1,.cls-3{fill:#fff;}.cls-2{fill:#d12609;}.cls-3{stroke:#fff;stroke-miterlimit:10;stroke-width:7px;}</style></defs><g id="Capa_2" data-name="Capa 2"><path class="cls-1" d="M1098.5,449c0-30.08-22.71-52.71-52.76-52.76q-86.13-.13-172.25,0c-30,.05-52.72,22.72-52.77,52.76q-.13,86.13.1,172.25a56.36,56.36,0,0,0,2.95,17.81c7.47,21.7,26.52,34.9,49.72,35,28.57.09,57.14,0,85.72,0,28.84,0,57.68.09,86.52,0,30.07-.12,52.71-22.7,52.77-52.78Q1098.67,535.14,1098.5,449Z" transform="translate(-787.8 -368.96)"/></g><g id="Capa_3" data-name="Capa 3"><path class="cls-2" d="M1131.34,434.29c-.07-37.2-28.08-65.18-65.24-65.24q-106.48-.18-213,0c-37.15.06-65.19,28.09-65.25,65.23q-.17,106.49.13,213a69.72,69.72,0,0,0,3.64,22c9.24,26.83,32.79,43.15,61.48,43.24,35.32.11,70.65,0,106,0,35.66,0,71.32.1,107,0,37.18-.14,65.17-28.07,65.24-65.26Q1131.54,540.77,1131.34,434.29Z" transform="translate(-787.8 -368.96)"/><path class="cls-3" d="M864.4,482.16c1.49-3.23,4.05-4.19,7.53-4.16,16.31.12,32.63,0,48.94.1a3.5,3.5,0,0,0,3.4-1.9c6.09-9.47,12.22-18.92,18.47-28.28,1.09-1.63,2.81-2.84,4.24-4.24h25.4a8.5,8.5,0,0,0,.75.47,5.6,5.6,0,0,1-2.47,10.73c-5.79,0-11.58,0-17.37,0a2.76,2.76,0,0,0-2.72,1.4c-4.59,7.18-9.28,14.29-14.17,21.79h2.18q21.57,0,43.14,0c4.3,0,7.07,3.8,5.58,7.58a5.48,5.48,0,0,1-4.81,3.6,20,20,0,0,1-2,0q-54.26,0-108.51.05c-3.48,0-6-.93-7.53-4.16Z" transform="translate(-787.8 -368.96)"/><path class="cls-3" d="M979.7,503.47c-.31,5-.6,9.81-.91,14.81-1.7,0-3.24,0-4.78,0-6.53.09-13.1-.21-19.59.38a46.12,46.12,0,0,0-40.35,36.06,51,51,0,0,0-.88,12.94c.29,5.34,4.5,10.64,10.6,13.24-4.62,8-4.68,16.05,0,24.19-.38.22-.72.45-1.08.63A17.17,17.17,0,0,0,913,624a30.44,30.44,0,0,0,5.36,13.76c-.78,0-1.31.09-1.84.09H885.14c-4.45,0-6.45-2-6.71-6.41q-1.77-29.25-3.59-58.51-1.59-26.28-3.14-52.56c-.33-5.59-.7-11.18-1.06-16.9Z" transform="translate(-787.8 -368.96)"/><path class="cls-1" d="M989.34,570.59H930.89c-4.83,0-6.94-2.16-6.82-7,.43-17,14-31.81,30.95-33.78a43.24,43.24,0,0,1,5.21-.32q29.22,0,58.45,0c17.91,0,32.21,11.78,35.58,29.31a34.56,34.56,0,0,1,.54,5.56c.1,3.85-2.24,6.21-6.07,6.22H989.34Z" transform="translate(-787.8 -368.96)"/><path class="cls-1" d="M989.63,615.43h58.47c4.92,0,7.33,2.8,6.61,7.65a16.77,16.77,0,0,1-17,14.76q-48.29,0-96.58,0a16.8,16.8,0,0,1-17-14.77c-.71-4.84,1.71-7.64,6.62-7.64Z" transform="translate(-787.8 -368.96)"/><path class="cls-1" d="M989.36,581.8c15.56,0,31.12,0,46.68,0A11.14,11.14,0,0,1,1046.13,598c-2.17,4.21-5.77,6.18-10.49,6.18H974.59c-10.64,0-21.28,0-31.92,0a11.19,11.19,0,0,1-7.18-19.72,11.57,11.57,0,0,1,7.76-2.69Q966.31,581.84,989.36,581.8Z" transform="translate(-787.8 -368.96)"/></g></svg>