<svg id="Capa_1" data-name="Capa 1" xmlns="http://www.w3.org/2000/svg" viewBox="0 0 336.15 171.36"><defs><style>.cls-1{fill:#ed5929;}.cls-2{fill:#4fb206;}.cls-3{fill:#f6b50a;}.cls-4{fill:#2b2b2b;}.cls-5,.cls-6{fill:#fff;}.cls-6{stroke:#fff;stroke-miterlimit:10;}</style></defs><path class="cls-1" d="M791.92,540c0,.26,0,.51,0,.76h85.31c0-.25,0-.5,0-.76a82.93,82.93,0,0,1,40.29-71.17L874.91,395A168,168,0,0,0,791.92,540Z" transform="translate(-791.92 -371.92)"/><path class="cls-2" d="M960,371.92A167.22,167.22,0,0,0,874.91,395l42.6,73.79a83,83,0,0,1,85.1-.2L1045.09,395A167.22,167.22,0,0,0,960,371.92Z" transform="translate(-791.92 -371.92)"/><path class="cls-3" d="M1045.09,395l-42.48,73.59A83,83,0,0,1,1043.24,540c0,.26,0,.51,0,.76h84.85c0-.25,0-.5,0-.76A168,168,0,0,0,1045.09,395Z" transform="translate(-791.92 -371.92)"/><path class="cls-4" d="M959.87,557.44" transform="translate(-791.92 -371.92)"/><path class="cls-5" d="M986.34,501.72l0,0-77.66,6,0,.25,70.55,32.08a21,21,0,1,0,7.13-38.35Zm14.29,22.39A10.43,10.43,0,1,1,992.16,512,10.43,10.43,0,0,1,1000.63,524.11Z" transform="translate(-791.92 -371.92)"/><path class="cls-6" d="M825.23,478.28a22.92,22.92,0,1,1,22.85,23A22.94,22.94,0,0,1,825.23,478.28Zm42.95.06a20,20,0,1,0-20.06,20A20,20,0,0,0,868.18,478.34Z" transform="translate(-791.92 -371.92)"/><path class="cls-6" d="M859.59,486.7a1.46,1.46,0,0,1-1,1.56,1.38,1.38,0,0,1-1.7-.68,10.1,10.1,0,0,0-3.7-3.67,10.27,10.27,0,0,0-13.73,3.48,1.52,1.52,0,0,1-2.13.73,1.47,1.47,0,0,1-.33-2.18,13.09,13.09,0,0,1,22.25,0A3.67,3.67,0,0,1,859.59,486.7Z" transform="translate(-791.92 -371.92)"/><path class="cls-6" d="M843.84,472.57a2.86,2.86,0,1,1-2.85-2.84A2.87,2.87,0,0,1,843.84,472.57Z" transform="translate(-791.92 -371.92)"/><path class="cls-6" d="M855.29,475.46a2.88,2.88,0,0,1-2.84-2.92,2.86,2.86,0,0,1,5.72,0A2.89,2.89,0,0,1,855.29,475.46Z" transform="translate(-791.92 -371.92)"/></svg>