<svg id="Capa_1" data-name="Capa 1" xmlns="http://www.w3.org/2000/svg" viewBox="0 0 172.34 180.91"><defs><style>.cls-1,.cls-2,.cls-3,.cls-4{fill:#fff;}.cls-2,.cls-3,.cls-4{stroke:#fff;stroke-miterlimit:10;}.cls-2{stroke-width:3px;}.cls-3{stroke-width:2px;}.cls-4{stroke-width:6px;}</style></defs><path class="cls-1" d="M72.25,130.28c-.15-22.56,8.59-40.4,27.21-53.07a57.16,57.16,0,0,1,32.9-9.85c8.21,0,16.46-.26,24.62.39,25.21,2,47,21.14,52.54,45.78a62.77,62.77,0,0,1,1.55,16.75Z" transform="translate(-55.56 -51.84)"/><path class="cls-2" d="M176.42,218.73c-6.9,0-13.52,0-20.15,0a3,3,0,0,1-1.69-.81q-22.07-19.06-44.09-38.2a6.07,6.07,0,0,1-1.45-2c-3.48-7.57-6.91-15.16-10.35-22.74-1.21-2.66-.86-4.33,1.06-5.23a4.86,4.86,0,0,1,6.45,1.93c3.37,6.68,6.73,13.35,10,20.08a6.1,6.1,0,0,0,3.5,3.19c9.76,3.85,19.48,7.79,29.26,11.6a7.57,7.57,0,0,0,3.95.31c3.47-.69,6.88-1.69,10.33-2.46a5.66,5.66,0,0,0,4-3.11c5.22-9.71,10.57-19.34,15.77-29.06,1.11-2.07,2.52-3.06,4.85-2.83,1.11.11,2.24,0,3.35,0,3.19.05,4.55,2.1,3.25,5-3.53,7.84-7.15,15.63-10.61,23.5a13,13,0,0,0-1.09,4.89c-.13,6-.05,11.95-.05,17.93a8.4,8.4,0,0,1-2.84,6.88,8.86,8.86,0,0,0-3.48,8.8A18.57,18.57,0,0,1,176.42,218.73Z" transform="translate(-55.56 -51.84)"/><path class="cls-3" d="M226.88,136.86c0,1.1.06,2.08,0,3a3.12,3.12,0,0,1-3.16,3.11c-.66,0-1.32,0-2,0H62.11c-5.17,0-5.9-.81-5.43-6.18Z" transform="translate(-55.56 -51.84)"/><path class="cls-2" d="M179.49,225.18v6.07H148.2v-6.07Z" transform="translate(-55.56 -51.84)"/><path class="cls-2" d="M97,167.44c-4.6-4.21-9.25-8.35-13.72-12.68a4.41,4.41,0,0,1-.77-3.34c.21-1.43,1.51-2,3-2.08,3.1-.14,3.83.28,5.14,3.16l6.66,14.68Z" transform="translate(-55.56 -51.84)"/><path class="cls-4" d="M146.51,57.56h-9.23V55.71c0-.48,1.33-.87,3-.87h3.29c1.64,0,3,.39,3,.87Z" transform="translate(-55.56 -51.84)"/></svg>