<svg id="Capa_1" data-name="Capa 1" xmlns="http://www.w3.org/2000/svg" viewBox="0 0 336.15 196.96"><defs><style>.cls-1{fill:#ed5929;}.cls-2{fill:#4fb206;}.cls-3{fill:#f6b50a;}.cls-4{fill:#2b2b2b;}.cls-5,.cls-6{fill:#fff;}.cls-6{stroke:#fff;stroke-miterlimit:10;}</style></defs><path class="cls-1" d="M791.92,540c0,.26,0,.51,0,.76h85.31c0-.25,0-.5,0-.76a82.93,82.93,0,0,1,40.29-71.17L874.91,395A168,168,0,0,0,791.92,540Z" transform="translate(-791.92 -371.92)"/><path class="cls-2" d="M960,371.92A167.22,167.22,0,0,0,874.91,395l42.6,73.79a83,83,0,0,1,85.1-.2L1045.09,395A167.22,167.22,0,0,0,960,371.92Z" transform="translate(-791.92 -371.92)"/><path class="cls-3" d="M1045.09,395l-42.48,73.59A83,83,0,0,1,1043.24,540c0,.26,0,.51,0,.76h84.85c0-.25,0-.5,0-.76A168,168,0,0,0,1045.09,395Z" transform="translate(-791.92 -371.92)"/><path class="cls-4" d="M959.87,557.44" transform="translate(-791.92 -371.92)"/><path class="cls-5" d="M979.41,540.38h0L960,465h-.25L940.41,540a21,21,0,1,0,39,.36Zm-19.57,18a10.43,10.43,0,1,1,10.44-10.43A10.43,10.43,0,0,1,959.84,558.33Z" transform="translate(-791.92 -371.92)"/><path class="cls-6" d="M937.08,413.46a22.92,22.92,0,1,1,22.85,23A22.94,22.94,0,0,1,937.08,413.46Zm42.95.05a20,20,0,1,0-20,20A20,20,0,0,0,980,413.51Z" transform="translate(-791.92 -371.92)"/><path class="cls-6" d="M960,425a14.86,14.86,0,0,1-10.11-3.44,17.94,17.94,0,0,1-2.51-3,1.34,1.34,0,0,1,.48-2,1.4,1.4,0,0,1,1.94.51,10.53,10.53,0,0,0,7.93,4.85,14.28,14.28,0,0,0,8.37-1.12,9.59,9.59,0,0,0,4.09-3.61,1.43,1.43,0,1,1,2.45,1.46,12.78,12.78,0,0,1-7.2,5.5A16.42,16.42,0,0,1,960,425Z" transform="translate(-791.92 -371.92)"/><path class="cls-6" d="M955.7,407.74a2.86,2.86,0,1,1-5.72.06,2.86,2.86,0,1,1,5.72-.06Z" transform="translate(-791.92 -371.92)"/><path class="cls-6" d="M967.17,410.64a2.87,2.87,0,1,1,2.85-2.85A2.88,2.88,0,0,1,967.17,410.64Z" transform="translate(-791.92 -371.92)"/></svg>