<svg id="Capa_1" data-name="Capa 1" xmlns="http://www.w3.org/2000/svg" viewBox="0 0 574.59 511.11"><defs><style>.cls-1{fill:#fcaf15;}</style></defs><path class="cls-1" d="M299.88,555.51q-119.53,0-239.06,0c-22.33,0-41-14.41-46.53-35.83-3.61-14.08-.89-27.26,6.48-40Q83.14,372.24,145.05,264.55,201,167.73,256.92,70.94c17.46-30.09,55-35.5,77.94-11.35a65.5,65.5,0,0,1,8.84,12.33Q461.59,275.91,579.29,480c21.06,36.53-1.49,75.49-43.57,75.53q-117.92.12-235.84,0ZM332,290.17h-.4c0-22.71.44-45.43-.17-68.12-.33-12.76-7.68-22.07-19.94-25.2-13-3.32-26.13-2.88-36.17,8.51-6.08,6.9-7.17,15.27-7.17,24q0,60.93,0,121.86a62,62,0,0,0,.95,11.15c2.11,11.31,9.07,18.79,19.88,21.9,24.47,7.06,42.77-6.84,42.95-32.33C332.07,331.32,332,310.75,332,290.17Zm-32,200.47a31.33,31.33,0,0,0,31.71-31.38c0-17.33-14.29-31.84-31.52-31.92s-31.63,14.43-31.75,31.73A31.4,31.4,0,0,0,299.92,490.64Z" transform="translate(-12.7 -44.44)"/></svg>